<svg width="479" height="399" viewBox="0 0 479 399" fill="none" xmlns="http://www.w3.org/2000/svg">
<path d="M446.63 64.0465C446.63 64.0465 417.434 9.20646 352.97 1.08246C288.506 -7.04154 243.482 32.5705 196.046 52.8865C171.194 63.5305 142.826 59.4025 116.45 64.5505C32.1143 81.0145 0.338262 184.166 35.4743 242.846C65.8823 293.63 119.402 320.042 200.906 326.138C282.41 332.234 339.578 339.338 412.574 289.574C485.57 239.81 480.686 136.178 446.63 64.0465Z" fill="#E3C092"/>
<path opacity="0.8" d="M446.63 64.0465C446.63 64.0465 417.434 9.20646 352.97 1.08246C288.506 -7.04154 243.482 32.5705 196.046 52.8865C171.194 63.5305 142.826 59.4025 116.45 64.5505C32.1143 81.0145 0.338262 184.166 35.4743 242.846C65.8823 293.63 119.402 320.042 200.906 326.138C282.41 332.234 339.578 339.338 412.574 289.574C485.57 239.81 480.686 136.178 446.63 64.0465Z" fill="white"/>
<path d="M468.363 229.358H21.9629V233.426H468.363V229.358Z" fill="#263238"/>
<path d="M364.357 231.758V6.36206" stroke="#263238" stroke-width="1.196" stroke-linecap="round" stroke-linejoin="round"/>
<path d="M162.758 231.758V7.76587" stroke="#263238" stroke-width="1.196" stroke-linecap="round" stroke-linejoin="round"/>
<path d="M34.0586 121.118H452.247" stroke="#263238" stroke-width="1.196" stroke-linecap="round" stroke-linejoin="round"/>
<path d="M34.0586 335.87H452.247" stroke="#263238" stroke-width="1.196" stroke-linecap="round" stroke-linejoin="round"/>
<path d="M289.549 80.366L286.777 82.07" stroke="#263238" stroke-width="0.598" stroke-linecap="round" stroke-linejoin="round"/>
<path d="M336.134 51.6621L293.258 78.0741" stroke="#263238" stroke-width="0.598" stroke-linecap="round" stroke-linejoin="round"/>
<path d="M341.783 53.438L307.439 74.606" stroke="#263238" stroke-width="0.598" stroke-linecap="round" stroke-linejoin="round"/>
<path d="M356.786 44.198L346.418 50.594" stroke="#263238" stroke-width="0.598" stroke-linecap="round" stroke-linejoin="round"/>
<path d="M24.9251 229.61L19.7051 232.826" stroke="#263238" stroke-width="0.598" stroke-linecap="round" stroke-linejoin="round"/>
<path d="M112.838 175.442L31.9336 225.29" stroke="#263238" stroke-width="0.598" stroke-linecap="round" stroke-linejoin="round"/>
<path d="M123.505 178.802L58.6934 218.75" stroke="#263238" stroke-width="0.598" stroke-linecap="round" stroke-linejoin="round"/>
<path d="M151.812 161.354L132.24 173.426" stroke="#263238" stroke-width="0.598" stroke-linecap="round" stroke-linejoin="round"/>
<path d="M317.294 225.362L312.074 228.578" stroke="#263238" stroke-width="0.598" stroke-linecap="round" stroke-linejoin="round"/>
<path d="M405.205 171.182L324.301 221.042" stroke="#263238" stroke-width="0.598" stroke-linecap="round" stroke-linejoin="round"/>
<path d="M415.874 174.554L351.062 214.502" stroke="#263238" stroke-width="0.598" stroke-linecap="round" stroke-linejoin="round"/>
<path d="M444.181 157.106L424.609 169.166" stroke="#263238" stroke-width="0.598" stroke-linecap="round" stroke-linejoin="round"/>
<path d="M239.16 398.786C371.244 398.786 478.32 388.164 478.32 375.062C478.32 361.959 371.244 351.338 239.16 351.338C107.076 351.338 0 361.959 0 375.062C0 388.164 107.076 398.786 239.16 398.786Z" fill="#E3C092"/>
<path opacity="0.5" d="M239.16 398.786C371.244 398.786 478.32 388.164 478.32 375.062C478.32 361.959 371.244 351.338 239.16 351.338C107.076 351.338 0 361.959 0 375.062C0 388.164 107.076 398.786 239.16 398.786Z" fill="white"/>
<path d="M304.599 201.47C298.827 206.27 294.735 212.018 289.803 218.162C285.539 223.19 281.583 228.471 277.959 233.978C272.307 243.122 284.247 319.238 284.247 319.238L272.883 323.51C272.883 323.51 247.959 251.834 245.763 235.718C243.567 219.602 261.879 189.998 269.763 182.594C277.647 175.19 305.475 170.39 315.483 181.718C321.279 188.27 315.651 194.15 309.951 197.654C308.077 198.794 306.288 200.07 304.599 201.47V201.47Z" fill="#263238" stroke="#263238" stroke-width="1.196" stroke-linecap="round" stroke-linejoin="round"/>
<path d="M289.958 335.246C289.958 332.918 286.622 324.758 284.258 319.274C277.298 322.346 272.75 322.046 272.75 322.046C271.261 323.086 270.03 324.453 269.15 326.042C267.95 328.442 259.154 332.45 254.354 334.046C249.554 335.642 246.758 338.042 249.554 340.046C252.35 342.05 272.354 340.85 279.554 339.65C286.754 338.45 289.958 338.846 289.958 335.246Z" fill="white" stroke="#263238" stroke-width="1.196" stroke-linecap="round" stroke-linejoin="round"/>
<path d="M269.162 326.006C267.962 328.406 259.166 332.414 254.366 334.01C249.566 335.606 246.77 338.006 249.566 340.01C252.362 342.014 272.366 340.814 279.566 339.614C286.766 338.414 289.958 338.846 289.958 335.246C289.958 333.686 288.446 329.498 286.754 325.25L275.558 328.046L272.75 322.046C271.269 323.077 270.042 324.432 269.162 326.006V326.006Z" fill="white" stroke="#263238" stroke-width="1.196" stroke-linecap="round" stroke-linejoin="round"/>
<path d="M182.319 211.646H195.591C196.488 211.647 197.375 211.833 198.196 212.193C199.017 212.553 199.755 213.08 200.363 213.739C200.971 214.399 201.435 215.177 201.727 216.025C202.019 216.873 202.132 217.772 202.059 218.666L200.331 240.026L181.959 235.802L182.319 211.646Z" fill="white" stroke="#263238" stroke-width="1.196" stroke-miterlimit="10"/>
<path d="M257.452 271.286C239.754 272.615 222.265 275.957 205.324 281.246C205.324 281.246 217.588 300.026 205.324 324.566L256.684 349.106L278.152 283.934L257.452 271.286ZM240.052 297.23L233.56 315.926C233.288 316.716 232.727 317.374 231.991 317.768C231.254 318.161 230.396 318.262 229.588 318.05L213.376 313.838C213.376 313.838 217.216 307.322 215.68 294.638L236.632 292.79C237.189 292.741 237.748 292.833 238.26 293.057C238.772 293.281 239.218 293.631 239.559 294.073C239.9 294.515 240.124 295.037 240.21 295.589C240.296 296.14 240.242 296.705 240.052 297.23V297.23Z" fill="white"/>
<path opacity="0.31" d="M257.452 271.286C239.754 272.615 222.265 275.957 205.324 281.246C205.324 281.246 217.588 300.026 205.324 324.566L256.684 349.106L278.152 283.934L257.452 271.286ZM240.052 297.23L233.56 315.926C233.288 316.716 232.727 317.373 231.991 317.767C231.254 318.161 230.396 318.262 229.588 318.05L213.376 313.838C213.376 313.838 217.216 307.322 215.68 294.638L236.632 292.79C237.189 292.741 237.748 292.832 238.26 293.057C238.772 293.281 239.218 293.63 239.559 294.073C239.9 294.515 240.124 295.036 240.21 295.588C240.296 296.14 240.242 296.705 240.052 297.23V297.23Z" fill="black" stroke="#263238" stroke-width="1.196" stroke-miterlimit="10"/>
<path d="M257.452 271.286C239.754 272.615 222.265 275.957 205.324 281.246C205.324 281.246 217.588 300.026 205.324 324.566L256.684 349.106L278.152 283.934L257.452 271.286ZM240.052 297.23L233.56 315.926C233.288 316.716 232.727 317.374 231.991 317.768C231.254 318.161 230.396 318.262 229.588 318.05L213.376 313.838C213.376 313.838 217.216 307.322 215.68 294.638L236.632 292.79C237.189 292.741 237.748 292.833 238.26 293.057C238.772 293.281 239.218 293.631 239.559 294.073C239.9 294.515 240.124 295.037 240.21 295.589C240.296 296.14 240.242 296.705 240.052 297.23V297.23Z" stroke="#263238" stroke-width="1.196" stroke-miterlimit="10"/>
<path d="M178.516 227.726C178.516 227.726 276.316 246.926 354.316 365.726H334.516C334.516 365.726 270.916 270.326 181.516 241.526L178.516 227.726Z" fill="#E3C092" stroke="#263238" stroke-width="1.196" stroke-miterlimit="10"/>
<path d="M216.004 321.557C225.967 296.812 213.983 268.676 189.238 258.713C164.493 248.751 136.357 260.734 126.394 285.48C116.432 310.225 128.415 338.361 153.161 348.323C177.906 358.286 206.042 346.302 216.004 321.557Z" fill="#263238" stroke="#263238" stroke-width="1.196" stroke-miterlimit="10"/>
<path d="M177.248 340.384C197.62 337.045 211.428 317.822 208.088 297.449C204.748 277.077 185.526 263.269 165.153 266.609C144.781 269.949 130.973 289.171 134.313 309.544C137.653 329.916 156.875 343.724 177.248 340.384Z" fill="#E3C092" stroke="#263238" stroke-width="1.196" stroke-miterlimit="10"/>
<path d="M306.184 243.626L299.008 243.038L307.132 203.234L314.308 203.822L306.184 243.626Z" fill="white" stroke="#263238" stroke-width="1.196" stroke-miterlimit="10"/>
<path d="M312.46 250.874H304.852V254.318H312.46V250.874Z" fill="white" stroke="#263238" stroke-width="1.196" stroke-miterlimit="10"/>
<path d="M290.499 236.03L308.943 237.914L290.871 353.834C290.871 353.834 321.735 360.614 340.563 367.034V377.198C340.563 377.198 302.547 365.906 263.019 362.894C223.491 359.882 170.439 368.546 170.439 368.546V357.626C170.439 357.626 213.339 351.23 248.727 351.626L290.499 236.03Z" fill="white" stroke="#263238" stroke-width="1.196" stroke-miterlimit="10"/>
<path d="M316.072 246.518H311.908V257.57H316.072V246.518Z" fill="#263238" stroke="#263238" stroke-width="1.196" stroke-linecap="round" stroke-linejoin="round"/>
<path d="M176.012 196.063L162.465 365.407L174.465 366.367L188.012 197.023L176.012 196.063Z" fill="white" stroke="#263238" stroke-width="1.19982" stroke-miterlimit="10"/>
<path d="M179.952 169.822L177.641 197.999L184.817 198.588L187.128 170.411L179.952 169.822Z" fill="white" stroke="#263238" stroke-width="1.196" stroke-miterlimit="10"/>
<path d="M298.238 204.446C298.238 204.446 319.682 207.362 332.402 205.538C345.122 203.714 343.67 193.538 341.486 188.462C339.302 183.386 330.95 185.186 321.494 186.65C312.038 188.114 309.866 191.366 301.874 193.19C293.882 195.014 287.342 194.27 288.062 198.998C288.782 203.726 298.238 204.446 298.238 204.446Z" fill="white"/>
<path opacity="0.2" d="M298.24 204.446C298.24 204.446 319.684 207.362 332.404 205.538C345.124 203.714 343.672 193.538 341.488 188.462C339.304 183.386 330.952 185.186 321.496 186.65C312.04 188.114 309.868 191.366 301.876 193.19C293.884 195.014 287.344 194.27 288.064 198.998C288.784 203.726 298.24 204.446 298.24 204.446Z" fill="black" stroke="#263238" stroke-width="1.196" stroke-miterlimit="10"/>
<path d="M298.238 204.446C298.238 204.446 319.682 207.362 332.402 205.538C345.122 203.714 343.67 193.538 341.486 188.462C339.302 183.386 330.95 185.186 321.494 186.65C312.038 188.114 309.866 191.366 301.874 193.19C293.882 195.014 287.342 194.27 288.062 198.998C288.782 203.726 298.238 204.446 298.238 204.446Z" stroke="#263238" stroke-width="1.196" stroke-miterlimit="10"/>
<path d="M208.933 175.118C196.501 175.118 176.245 173.978 167.761 169.73C156.037 163.874 133.525 143.33 132.565 142.502C132.1 142.077 131.722 141.564 131.455 140.992C131.187 140.421 131.035 139.803 131.007 139.173C130.978 138.542 131.074 137.913 131.289 137.32C131.504 136.727 131.834 136.182 132.259 135.716C132.685 135.25 133.198 134.873 133.769 134.606C134.34 134.338 134.959 134.186 135.589 134.158C136.219 134.129 136.849 134.225 137.442 134.44C138.035 134.655 138.58 134.985 139.045 135.41C139.261 135.614 161.521 155.882 172.057 161.15C181.153 165.698 212.293 165.77 216.745 165.35C217.944 165.118 219.187 165.352 220.22 166.004C221.252 166.657 221.998 167.678 222.303 168.861C222.609 170.043 222.453 171.298 221.866 172.369C221.28 173.44 220.306 174.247 219.145 174.626C215.761 175.073 212.345 175.238 208.933 175.118V175.118Z" fill="#263238"/>
<path d="M274.359 307.166L274.036 330.158C274.029 330.596 274.11 331.031 274.273 331.438C274.435 331.844 274.677 332.215 274.984 332.527C275.291 332.84 275.657 333.088 276.061 333.258C276.464 333.428 276.898 333.517 277.336 333.518C277.809 333.52 278.278 333.419 278.709 333.223C279.14 333.027 279.524 332.741 279.835 332.384C280.146 332.026 280.376 331.606 280.51 331.151C280.644 330.697 280.679 330.219 280.612 329.75L277.324 306.446L274.359 307.166Z" fill="#E3C092" stroke="#263238" stroke-width="1.196" stroke-miterlimit="10"/>
<path d="M281.188 330.23C281.188 329.411 280.945 328.611 280.49 327.93C280.036 327.249 279.389 326.719 278.633 326.405C277.876 326.092 277.044 326.01 276.241 326.17C275.437 326.329 274.7 326.724 274.121 327.303C273.542 327.882 273.147 328.619 272.988 329.422C272.828 330.226 272.91 331.058 273.223 331.814C273.537 332.571 274.067 333.217 274.748 333.672C275.429 334.127 276.229 334.37 277.048 334.37C278.146 334.37 279.199 333.934 279.976 333.158C280.752 332.381 281.188 331.328 281.188 330.23V330.23Z" fill="#E3C092" stroke="#263238" stroke-width="1.196" stroke-miterlimit="10"/>
<path d="M287.488 302.27H264.904V307.538H287.488V302.27Z" fill="#263238" stroke="#263238" stroke-width="1.196" stroke-linecap="round" stroke-linejoin="round"/>
<path d="M161.414 366.554L149.666 386.21V388.358H171.434V385.286L173.366 367.538L161.414 366.554Z" fill="white" stroke="#263238" stroke-width="1.196" stroke-miterlimit="10"/>
<path d="M149.666 386.21H170.522" stroke="#263238" stroke-width="1.196" stroke-miterlimit="10"/>
<path d="M354.316 365.726L357.136 386.21L357.112 388.358H330.916L331.216 385.286L334.516 365.726H354.316Z" fill="#E3C092" stroke="#263238" stroke-width="1.196" stroke-miterlimit="10"/>
<path d="M357.135 386.21H332.043" stroke="#263238" stroke-width="1.196" stroke-miterlimit="10"/>
<path d="M198.268 34.1662C198.268 34.1662 191.512 39.5302 190.816 44.1982C190.12 48.8662 191.512 54.6982 189.88 57.9622C188.248 61.2261 184.516 62.3901 185.68 63.9621C186.844 65.5341 190.576 66.7582 190.576 66.7582C190.576 66.7582 192.904 75.3862 195.244 79.3582C197.584 83.3302 200.14 87.7581 203.872 87.7581C206.25 87.6579 208.502 86.6586 210.172 84.9621C210.172 84.9621 219.772 92.4261 222.292 94.5621C224.812 96.6981 240.952 69.7702 240.952 69.7702L232.552 65.4142C233.184 63.9122 233.655 62.3475 233.956 60.7462C234.72 54.6602 233.405 48.4947 230.224 43.2502C225.328 34.8742 212.968 25.0702 198.268 34.1662Z" fill="white"/>
<path d="M232.553 65.4262C233.185 63.9243 233.656 62.3596 233.957 60.7582C234.721 54.6723 233.406 48.5067 230.225 43.2622C227.605 38.7913 223.779 35.1483 219.185 32.7502L206.585 41.3662C206.585 41.3662 202.889 44.1383 204.425 47.5343C205.961 50.9303 212.765 58.9463 214.925 64.8023C217.085 70.6583 214.301 78.3743 209.681 81.7703C206.945 83.7743 203.357 85.7783 201.701 87.2783C202.374 87.6202 203.118 87.801 203.873 87.8063C206.252 87.706 208.503 86.7067 210.173 85.0103C210.173 85.0103 217.373 90.5903 220.973 93.4103L223.937 94.0222C228.737 90.1942 241.013 69.7343 241.013 69.7343L232.553 65.4262Z" fill="#E3C092"/>
<path opacity="0.5" d="M232.553 65.4262C233.185 63.9243 233.656 62.3596 233.957 60.7582C234.721 54.6723 233.406 48.5067 230.225 43.2622C227.605 38.7913 223.779 35.1483 219.185 32.7502L206.585 41.3662C206.585 41.3662 202.889 44.1383 204.425 47.5343C205.961 50.9303 212.765 58.9463 214.925 64.8023C217.085 70.6583 214.301 78.3743 209.681 81.7703C206.945 83.7743 203.357 85.7783 201.701 87.2783C202.374 87.6202 203.118 87.801 203.873 87.8063C206.252 87.706 208.503 86.7067 210.173 85.0103C210.173 85.0103 217.373 90.5903 220.973 93.4103L223.937 94.0222C228.737 90.1942 241.013 69.7343 241.013 69.7343L232.553 65.4262Z" fill="white"/>
<path d="M198.268 34.1662C198.268 34.1662 191.512 39.5302 190.816 44.1982C190.12 48.8662 191.512 54.6982 189.88 57.9622C188.248 61.2261 184.516 62.3901 185.68 63.9621C186.844 65.5341 190.576 66.7582 190.576 66.7582C190.576 66.7582 192.904 75.3862 195.244 79.3582C197.584 83.3302 200.14 87.7581 203.872 87.7581C206.25 87.6579 208.502 86.6586 210.172 84.9621C210.172 84.9621 219.772 92.4261 222.292 94.5621C224.812 96.6981 240.952 69.7702 240.952 69.7702L232.552 65.4142C233.184 63.9122 233.655 62.3475 233.956 60.7462C234.72 54.6602 233.405 48.4947 230.224 43.2502C225.328 34.8742 212.968 25.0702 198.268 34.1662Z" stroke="#263238" stroke-width="1.196" stroke-linecap="round" stroke-linejoin="round"/>
<path d="M193.85 69.4459C193.85 69.4459 194.378 67.0458 196.49 67.5978" stroke="#263238" stroke-width="1.196" stroke-linecap="round" stroke-linejoin="round"/>
<path d="M198.039 56.2102C198.039 57.4102 197.571 58.4303 196.995 58.4303C196.419 58.4303 195.939 57.4342 195.939 56.2102C195.939 54.9862 196.407 53.9902 196.995 53.9902C197.583 53.9902 198.039 54.9862 198.039 56.2102Z" fill="#263238"/>
<path d="M194.547 52.5984C194.547 52.5984 195.939 48.3984 199.671 50.7264" stroke="#263238" stroke-width="1.794" stroke-linecap="round" stroke-linejoin="round"/>
<path d="M210.17 85.0105C210.17 85.0105 216.926 80.8104 218.57 73.3464" stroke="#263238" stroke-width="1.196" stroke-linecap="round" stroke-linejoin="round"/>
<path d="M253.732 72.3743C253.732 72.3743 242.668 65.4264 231.376 69.9743C220.084 74.5223 210.556 104.906 210.976 116.186C211.396 127.466 221.176 145.91 232.888 148.73C244.6 151.55 246.988 148.298 246.988 148.298C246.988 148.298 247.648 155.246 252.844 159.362C258.04 163.478 260.224 163.922 260.224 163.922C260.224 163.922 255.028 178.046 272.176 187.646C289.324 197.246 314.92 198.446 326.632 194.15C338.344 189.854 344.428 173.102 344.86 157.046C345.292 140.99 334.66 132.962 329.668 128.246C324.676 123.53 308.188 117.614 308.188 117.614C308.188 117.614 292.78 99.2783 279.544 88.0463C271.892 81.395 263.164 76.0953 253.732 72.3743V72.3743Z" fill="white"/>
<path d="M307.156 128.93C308.428 126.53 308.908 122.414 308.692 117.686L308.188 117.494C308.188 117.494 292.78 99.2781 279.544 88.0461C271.887 81.4203 263.158 76.1451 253.732 72.4461C251.417 71.1071 248.93 70.0898 246.34 69.4221C242.944 70.0221 242.74 71.5821 247.612 75.6021C256.408 82.8741 258.412 105.194 255.916 109.886C253.42 114.578 245.452 105.914 239.32 110.966C233.188 116.018 235.204 140.69 247 148.382C256.081 150.451 265.371 151.458 274.684 151.382C290.92 151.31 303.16 136.514 307.156 128.93Z" fill="#E3C092"/>
<path opacity="0.5" d="M307.156 128.93C308.428 126.53 308.908 122.414 308.692 117.686L308.188 117.494C308.188 117.494 292.78 99.2781 279.544 88.0461C271.887 81.4203 263.158 76.1451 253.732 72.4461C251.417 71.1071 248.93 70.0898 246.34 69.4221C242.944 70.0221 242.74 71.5821 247.612 75.6021C256.408 82.8741 258.412 105.194 255.916 109.886C253.42 114.578 245.452 105.914 239.32 110.966C233.188 116.018 235.204 140.69 247 148.382C256.081 150.451 265.371 151.458 274.684 151.382C290.92 151.31 303.16 136.514 307.156 128.93Z" fill="white"/>
<path d="M253.732 72.3743C253.732 72.3743 242.668 65.4264 231.376 69.9743C220.084 74.5223 210.556 104.906 210.976 116.186C211.396 127.466 221.176 145.91 232.888 148.73C244.6 151.55 246.988 148.298 246.988 148.298C246.988 148.298 247.648 155.246 252.844 159.362C258.04 163.478 260.224 163.922 260.224 163.922C260.224 163.922 255.028 178.046 272.176 187.646C289.324 197.246 314.92 198.446 326.632 194.15C338.344 189.854 344.428 173.102 344.86 157.046C345.292 140.99 334.66 132.962 329.668 128.246C324.676 123.53 308.188 117.614 308.188 117.614C308.188 117.614 292.78 99.2783 279.544 88.0463C271.892 81.395 263.164 76.0953 253.732 72.3743V72.3743Z" stroke="#263238" stroke-width="1.196" stroke-linecap="round" stroke-linejoin="round"/>
<path d="M271.515 121.646C276.69 112.134 280.779 102.071 283.707 91.6462C282.315 90.3502 280.927 89.1142 279.543 87.9382C276.332 85.2065 272.945 82.689 269.403 80.4022L266.091 84.9022C266.091 84.9022 254.991 73.6822 247.611 70.4302C246.603 69.9862 241.719 68.7022 240.687 68.4262C237.51 68.2511 234.333 68.767 231.375 69.9382C229.818 70.6226 228.405 71.5958 227.211 72.8062C228.747 72.6382 233.211 70.7902 234.987 70.7902C244.971 70.7902 251.295 77.3542 254.115 80.1742C256.935 82.9942 262.839 90.9742 262.839 90.9742C260.282 99.0287 254.988 105.935 247.875 110.498C235.719 118.526 222.267 122.642 216.843 122.642C215.243 122.57 213.639 122.602 212.043 122.738C214.947 133.538 223.251 146.366 232.875 148.682C244.587 151.502 246.975 148.25 246.975 148.25C246.975 148.25 260.451 142.046 271.515 121.646Z" fill="#E3C092"/>
<path opacity="0.15" d="M271.514 121.646C260.45 142.046 246.998 148.334 246.998 148.334C246.998 148.334 244.598 151.586 232.898 148.766C229.774 147.903 226.913 146.279 224.57 144.038C229.442 144.434 239.498 144.386 238.97 137.258C238.538 131.63 235.37 124.058 233.15 118.37C237.088 116.734 240.906 114.821 244.574 112.646C250.706 114.17 257.834 115.778 263.498 115.61C263.498 115.61 270.494 116.27 275.03 114.77C273.95 116.978 272.798 119.246 271.514 121.646ZM254.114 80.2464C254.75 80.8824 255.554 81.7944 256.406 82.8264C266.282 89.3424 275.354 101.846 277.742 108.71C280.107 103.182 282.111 97.506 283.742 91.7184C282.35 90.4224 280.962 89.1864 279.578 88.0104C276.367 85.2787 272.98 82.7613 269.438 80.4744L266.126 84.9744C266.126 84.9744 255.026 73.7544 247.646 70.5024C246.638 70.0584 241.754 68.7744 240.722 68.4984C237.546 68.3234 234.369 68.8392 231.41 70.0104C229.854 70.6949 228.441 71.668 227.246 72.8784C228.782 72.7104 233.246 70.8624 235.022 70.8624C244.97 70.8384 251.294 77.4024 254.114 80.2224V80.2464Z" fill="black"/>
<path d="M271.515 121.646C276.69 112.134 280.779 102.071 283.707 91.6462C282.315 90.3502 280.927 89.1142 279.543 87.9382C276.332 85.2065 272.945 82.689 269.403 80.4022L266.091 84.9022C266.091 84.9022 254.991 73.6822 247.611 70.4302C246.603 69.9862 241.719 68.7022 240.687 68.4262C237.51 68.2511 234.333 68.767 231.375 69.9382C229.818 70.6226 228.405 71.5958 227.211 72.8062C228.747 72.6382 233.211 70.7902 234.987 70.7902C244.971 70.7902 251.295 77.3542 254.115 80.1742C256.935 82.9942 262.839 90.9742 262.839 90.9742C260.282 99.0287 254.988 105.935 247.875 110.498C235.719 118.526 222.267 122.642 216.843 122.642C215.243 122.57 213.639 122.602 212.043 122.738C214.947 133.538 223.251 146.366 232.875 148.682C244.587 151.502 246.975 148.25 246.975 148.25C246.975 148.25 260.451 142.046 271.515 121.646Z" stroke="#263238" stroke-width="1.196" stroke-linecap="round" stroke-linejoin="round"/>
<path d="M234.317 76.9343C234.317 76.9343 224.717 78.1343 218.321 88.5263C211.925 98.9183 197.921 141.326 197.921 141.326C197.921 141.326 175.925 142.526 167.117 140.534C158.309 138.542 149.117 134.126 144.725 130.526C140.333 126.926 138.725 123.734 134.717 124.13C130.709 124.526 125.525 126.53 125.117 128.93C124.898 130.119 124.765 131.322 124.721 132.53C124.721 132.53 129.161 143.726 132.761 143.726C136.361 143.726 135.953 140.93 138.353 139.334C140.753 137.738 140.753 141.398 147.149 141.734C147.149 141.734 169.193 154.106 181.553 160.466C193.133 166.466 206.357 168.47 211.157 164.87C215.957 161.27 236.753 130.07 244.361 102.074" fill="white"/>
<path d="M236.786 104.03C232.454 105.842 224.161 126.05 217.297 139.754C210.434 153.458 199.958 162.446 185.558 157.082C179.03 154.682 152.354 144.446 152.354 144.446L152.834 144.986C160.214 149.09 173.114 156.194 181.526 160.586C193.106 166.586 206.33 168.59 211.13 164.99C214.934 162.134 228.769 141.962 238.129 119.786C238.789 115.154 240.338 102.554 236.786 104.03Z" fill="#E3C092"/>
<path opacity="0.5" d="M236.786 104.03C232.454 105.842 224.161 126.05 217.297 139.754C210.434 153.458 199.958 162.446 185.558 157.082C179.03 154.682 152.354 144.446 152.354 144.446L152.834 144.986C160.214 149.09 173.114 156.194 181.526 160.586C193.106 166.586 206.33 168.59 211.13 164.99C214.934 162.134 228.769 141.962 238.129 119.786C238.789 115.154 240.338 102.554 236.786 104.03Z" fill="white"/>
<path d="M234.317 76.9343C234.317 76.9343 224.717 78.1343 218.321 88.5263C211.925 98.9183 197.921 141.326 197.921 141.326C197.921 141.326 175.925 142.526 167.117 140.534C158.309 138.542 149.117 134.126 144.725 130.526C140.333 126.926 138.725 123.734 134.717 124.13C130.709 124.526 125.525 126.53 125.117 128.93C124.898 130.119 124.765 131.322 124.721 132.53C124.721 132.53 129.161 143.726 132.761 143.726C136.361 143.726 135.953 140.93 138.353 139.334C140.753 137.738 140.753 141.398 147.149 141.734C147.149 141.734 169.193 154.106 181.553 160.466C193.133 166.466 206.357 168.47 211.157 164.87C215.957 161.27 236.753 130.07 244.361 102.074" stroke="#263238" stroke-width="1.196" stroke-linecap="round" stroke-linejoin="round"/>
<path d="M125.559 134.138C125.559 134.138 126.687 129.986 128.763 128.858C130.139 128.135 131.592 127.568 133.095 127.166" stroke="#263238" stroke-width="1.196" stroke-linecap="round" stroke-linejoin="round"/>
<path d="M127.395 137.342C128.475 135.256 129.872 133.35 131.535 131.69C132.953 130.632 134.662 130.037 136.431 129.986" stroke="#263238" stroke-width="1.196" stroke-linecap="round" stroke-linejoin="round"/>
<path d="M131.162 142.802C131.162 142.802 129.842 138.842 131.726 137.15C133.61 135.458 138.506 134.138 138.506 134.138" stroke="#263238" stroke-width="1.196" stroke-linecap="round" stroke-linejoin="round"/>
<path d="M329.668 128.126C324.664 124.058 310.288 118.262 308.392 117.578C284.74 156.35 260.236 163.934 260.236 163.934C260.236 163.934 255.028 178.046 272.176 187.646C289.324 197.246 314.92 198.446 326.632 194.15C338.344 189.854 346.648 174.35 347.032 158.294C347.416 142.238 335.98 133.262 329.668 128.126Z" fill="#263238" stroke="#263238" stroke-width="1.196" stroke-linecap="round" stroke-linejoin="round"/>
<path d="M310.717 150.134C310.717 150.134 284.317 157.73 261.121 170.126C237.925 182.522 213.517 213.326 216.313 218.126C219.109 222.926 277.117 285.326 277.117 285.326C275.629 286.372 274.398 287.743 273.517 289.334C272.317 291.734 263.521 295.73 258.721 297.326C253.921 298.922 251.113 301.334 253.921 303.326C256.729 305.318 276.721 304.13 283.921 302.93C291.121 301.73 294.313 302.126 294.313 298.526C294.313 294.926 286.357 277.334 286.357 277.334L264.757 218.126C264.757 218.126 326.353 202.934 336.349 186.53C346.345 170.126 344.893 156.986 344.893 156.986" fill="#263238"/>
<path d="M310.717 150.134C310.717 150.134 284.317 157.73 261.121 170.126C237.925 182.522 213.517 213.326 216.313 218.126C219.109 222.926 277.117 285.326 277.117 285.326C275.629 286.372 274.398 287.743 273.517 289.334C272.317 291.734 263.521 295.73 258.721 297.326C253.921 298.922 251.113 301.334 253.921 303.326C256.729 305.318 276.721 304.13 283.921 302.93C291.121 301.73 294.313 302.126 294.313 298.526C294.313 294.926 286.357 277.334 286.357 277.334L264.757 218.126C264.757 218.126 326.353 202.934 336.349 186.53C346.345 170.126 344.893 156.986 344.893 156.986" stroke="#263238" stroke-width="1.196" stroke-linecap="round" stroke-linejoin="round"/>
<path d="M264.723 218.126L251.523 220.934" stroke="white" stroke-width="1.196" stroke-linecap="round" stroke-linejoin="round"/>
<path d="M294.316 298.526C294.316 296.21 290.98 288.05 288.616 282.554C281.656 285.626 277.12 285.326 277.12 285.326C275.632 286.372 274.401 287.742 273.52 289.334C272.32 291.734 263.524 295.73 258.724 297.326C253.924 298.922 251.116 301.334 253.924 303.326C256.732 305.318 276.724 304.13 283.924 302.93C291.124 301.73 294.316 302.126 294.316 298.526Z" fill="white" stroke="#263238" stroke-width="1.196" stroke-linecap="round" stroke-linejoin="round"/>
<path d="M273.52 289.334C272.32 291.734 263.524 295.73 258.724 297.326C253.924 298.922 251.116 301.334 253.924 303.326C256.732 305.318 276.724 304.13 283.924 302.93C291.124 301.73 294.316 302.126 294.316 298.526C294.316 296.966 292.816 292.778 291.112 288.53L279.916 291.326L277.12 285.326C275.632 286.372 274.401 287.743 273.52 289.334V289.334Z" fill="white" stroke="#263238" stroke-width="1.196" stroke-linecap="round" stroke-linejoin="round"/>
<path d="M263.717 169.526C263.717 169.526 298.517 149.726 320.117 144.326" stroke="white" stroke-width="1.196" stroke-linecap="round" stroke-linejoin="round"/>
<path d="M195.002 37.8982C195.002 37.8982 203.87 35.1022 204.806 36.9742C205.742 38.8462 201.074 45.3742 203.606 46.2982C206.138 47.2222 211.31 50.0302 211.538 52.2982C211.766 54.5662 213.938 57.4342 215.51 56.2702C217.082 55.1062 215.738 51.3622 219.938 51.3622C224.138 51.3622 225.062 57.9022 222.974 60.6982C220.886 63.4942 217.37 65.3662 218.774 65.5942C220.178 65.8222 227.87 66.2902 233.234 64.1902C238.598 62.0902 240.71 48.5902 239.234 39.9262C238.521 35.3204 236.347 31.0654 233.033 27.7882C229.719 24.5109 225.44 22.3845 220.826 21.7222C214.73 21.1942 206.138 25.2502 206.138 25.2502C206.138 25.2502 198.446 21.5182 193.778 27.5782C192.439 29.2736 191.613 31.3179 191.401 33.4684C191.188 35.6188 191.597 37.7852 192.578 39.7102L195.002 37.8982Z" fill="#263238" stroke="#263238" stroke-width="1.196" stroke-linecap="round" stroke-linejoin="round"/>
<path d="M236.752 46.766C236.614 46.0498 236.638 45.312 236.822 44.6061C237.005 43.9003 237.344 43.2443 237.813 42.6857C238.282 42.1272 238.869 41.6802 239.533 41.3771C240.196 41.0741 240.919 40.9228 241.648 40.934C247.48 40.466 253.312 45.602 253.552 50.726C253.792 55.85 251.908 62.858 244.912 62.618C237.916 62.378 236.512 58.43 236.512 58.43L236.752 46.766Z" fill="#263238" stroke="#263238" stroke-width="1.196" stroke-linecap="round" stroke-linejoin="round"/>
</svg>
