<svg width="477" height="444" viewBox="0 0 477 444" fill="none" xmlns="http://www.w3.org/2000/svg">
<path d="M474.256 443.161C474.256 443.308 368.077 443.433 237.128 443.433C106.179 443.433 0 443.308 0 443.161C0 443.015 106.138 442.931 237.128 442.931C368.119 442.931 474.256 443.015 474.256 443.161Z" fill="#263238"/>
<path d="M445.648 405.735C447.395 408.214 450.773 407.398 452.342 405.882C453.911 404.365 454.57 402.158 455.177 400.066C456.547 395.275 457.938 390.254 456.913 385.422C456.667 383.944 456.019 382.561 455.041 381.426C454.544 380.869 453.91 380.451 453.201 380.216C452.493 379.981 451.735 379.937 451.003 380.087C449.298 380.537 448.231 382.179 447.468 383.79C445.213 388.482 444.03 393.616 444.006 398.821C443.85 401.251 444.422 403.673 445.648 405.777" fill="#D9B88E"/>
<g opacity="0.2">
<path opacity="0.2" d="M445.648 405.735C447.395 408.214 450.773 407.398 452.342 405.882C453.911 404.365 454.57 402.158 455.177 400.066C456.547 395.275 457.938 390.254 456.913 385.422C456.667 383.944 456.019 382.561 455.041 381.426C454.544 380.869 453.91 380.451 453.201 380.216C452.493 379.981 451.735 379.937 451.003 380.087C449.298 380.537 448.231 382.179 447.468 383.79C445.213 388.482 444.03 393.616 444.006 398.821C443.85 401.251 444.422 403.673 445.648 405.777" fill="black"/>
</g>
<path d="M452.165 418.308C455.101 416.932 458.401 416.536 461.579 417.178C463.308 417.339 464.933 418.076 466.192 419.27C467.353 420.547 467.562 422.785 466.244 423.883C465.387 424.462 464.355 424.721 463.326 424.615C460.858 424.615 458.096 424.155 456.14 425.661C455.01 426.509 454.257 427.921 452.918 428.339C452.244 428.503 451.535 428.44 450.901 428.158C450.267 427.876 449.744 427.391 449.414 426.781C448.772 425.542 448.629 424.104 449.017 422.764C449.164 421.829 449.525 420.941 450.071 420.169C450.617 419.396 451.334 418.759 452.165 418.308V418.308Z" fill="#D9B88E"/>
<path d="M440.879 409.292C441.772 408.124 442.366 406.757 442.611 405.308C442.855 403.858 442.742 402.371 442.281 400.976C441.327 398.187 439.623 395.714 437.354 393.832C434.785 391.529 431.789 389.752 428.536 388.602C427.275 388.094 425.919 387.866 424.562 387.932C423.886 387.973 423.23 388.177 422.651 388.527C422.072 388.877 421.586 389.362 421.235 389.941C420.304 391.719 421.235 393.863 422.166 395.62C423.861 398.709 425.798 401.657 427.961 404.438C429.697 406.677 431.685 408.884 434.331 409.898C436.978 410.913 439.729 410.798 441.13 408.957" fill="#D9B88E"/>
<path d="M445.533 443.203C445.623 442.833 445.675 442.454 445.689 442.073C445.773 441.257 445.867 440.222 445.993 438.998C446.118 437.774 446.328 436.153 446.683 434.479C447.086 432.66 447.635 430.876 448.325 429.145C449.005 427.419 449.92 425.797 451.045 424.323C451.968 423.123 453.147 422.144 454.497 421.457C455.408 421.003 456.386 420.7 457.394 420.557C457.772 420.543 458.148 420.487 458.513 420.39C458.134 420.353 457.752 420.353 457.373 420.39C456.326 420.473 455.303 420.743 454.35 421.185C452.927 421.857 451.683 422.857 450.721 424.103C449.542 425.593 448.59 427.25 447.897 429.019C447.198 430.778 446.652 432.595 446.265 434.448C445.97 435.958 445.767 437.484 445.658 439.019C445.564 440.326 445.533 441.383 445.512 442.157C445.483 442.505 445.49 442.856 445.533 443.203Z" fill="#263238"/>
<path d="M445.743 440.839C445.77 440.666 445.77 440.489 445.743 440.316V438.81C445.743 437.513 445.743 435.672 445.806 433.308C445.921 428.663 446.329 422.251 447.093 415.201C447.856 408.151 448.902 401.813 449.844 397.263C450.074 396.112 450.293 395.087 450.503 394.187C450.701 393.288 450.879 392.514 451.046 391.886C451.214 391.259 451.298 390.84 451.392 390.432C451.439 390.261 451.47 390.086 451.486 389.909C451.401 390.064 451.337 390.229 451.298 390.401L450.869 391.844C450.67 392.461 450.471 393.235 450.252 394.135C450.032 395.035 449.77 396.049 449.53 397.189C448.249 403.12 447.286 409.116 446.643 415.149C445.869 422.21 445.524 428.643 445.492 433.308C445.492 435.63 445.492 437.492 445.576 438.82C445.576 439.427 445.639 439.918 445.66 440.316C445.674 440.492 445.702 440.667 445.743 440.839V440.839Z" fill="#263238"/>
<path d="M445.774 428.433C445.824 427.912 445.824 427.386 445.774 426.864C445.69 425.445 445.533 424.031 445.304 422.628C444.959 420.543 444.498 418.479 443.923 416.446C443.237 413.947 442.374 411.5 441.339 409.124C439.547 404.761 436.978 400.76 433.756 397.315C433.198 396.721 432.6 396.165 431.967 395.652C431.695 395.422 431.455 395.192 431.204 395.003L430.513 394.533C430.096 394.218 429.655 393.934 429.195 393.685C430.714 394.878 432.157 396.163 433.515 397.535C436.629 401.01 439.129 404.989 440.91 409.302C441.938 411.664 442.805 414.093 443.505 416.572C444.184 418.842 444.634 420.923 444.979 422.68C445.325 424.438 445.482 425.881 445.597 426.864C445.618 427.391 445.677 427.915 445.774 428.433Z" fill="#263238"/>
<path d="M410.676 51.1201L408.385 47.4068C389.933 17.3657 356.942 -1.13807 321.713 0.0543727C316.115 0.244956 310.543 0.920411 305.061 2.07315C272.154 9.02905 243.525 33.5996 231.663 65.0633C224.676 83.5775 222.73 104.885 209.488 119.57C192.25 138.691 162.983 139.287 137.251 138.503C111.52 137.718 82.242 138.388 65.0771 157.572C54.3451 169.569 50.9247 186.692 51.7929 202.79C54.0836 245.415 84.2189 283.52 122.408 302.463C160.598 321.407 205.691 323.101 247.552 314.764C306.201 303.091 361.963 271.031 395.498 221.524C429.033 172.017 437.495 104.56 410.676 51.1201Z" fill="#F5F5F5"/>
<path d="M220.701 402.712L225.816 365.746L249.759 366.981L236.433 406.697L220.701 402.712Z" fill="#FFBE9D"/>
<path d="M237.835 402.827L237.751 403.873C237.751 403.873 255.042 412.659 254.937 416.08L219.373 412.754L220.963 400.955C223.478 402.455 226.285 403.399 229.196 403.722C232.106 404.045 235.052 403.74 237.835 402.827V402.827Z" fill="#D9B88E"/>
<g opacity="0.6">
<path opacity="0.6" d="M224.184 405.055C223.834 405.13 223.523 405.332 223.311 405.621C223.099 405.91 223 406.267 223.034 406.624C223.095 406.976 223.288 407.292 223.574 407.508C223.859 407.723 224.216 407.822 224.571 407.785C224.943 407.707 225.273 407.494 225.497 407.187C225.722 406.879 225.824 406.5 225.785 406.122C225.691 405.754 225.456 405.439 225.131 405.243C224.806 405.047 224.417 404.987 224.048 405.076" fill="white"/>
</g>
<g opacity="0.6">
<path opacity="0.6" d="M219.354 412.733L219.73 409.888L253.694 414.072C253.694 414.072 255.221 414.908 254.938 416.017L219.354 412.733Z" fill="white"/>
</g>
<path d="M237.866 403.967C237.866 404.135 236.966 404.135 236.056 404.616C235.146 405.097 234.634 405.777 234.477 405.662C234.32 405.547 234.675 404.616 235.784 404.04C236.893 403.465 237.918 403.81 237.866 403.967Z" fill="#263238"/>
<path d="M241.454 405.86C241.454 406.028 240.701 406.258 240.042 406.906C239.383 407.555 239.132 408.34 238.996 408.319C238.86 408.298 238.808 407.273 239.645 406.467C240.482 405.662 241.465 405.693 241.454 405.86Z" fill="#263238"/>
<path d="M243.159 410.526C242.991 410.526 242.834 409.647 243.368 408.747C243.901 407.848 244.749 407.534 244.811 407.701C244.874 407.869 244.32 408.318 243.891 409.072C243.462 409.825 243.326 410.515 243.159 410.526Z" fill="#263238"/>
<path d="M122.598 347.797L148.758 329.042L169.438 340.287L131.918 361.531L122.598 347.797Z" fill="#FFBE9D"/>
<path d="M133.998 360.652L133.109 361.238C133.109 361.238 136.854 380.265 134.092 382.283L114.783 352.221L124.835 345.862C125.242 348.831 126.268 351.682 127.847 354.23C129.425 356.777 131.521 358.965 133.998 360.652V360.652Z" fill="#D9B88E"/>
<g opacity="0.6">
<path opacity="0.6" d="M123.821 351.301C123.545 351.069 123.193 350.946 122.833 350.956C122.473 350.966 122.128 351.107 121.865 351.353C121.619 351.614 121.482 351.958 121.482 352.316C121.482 352.673 121.619 353.018 121.865 353.278C122.157 353.534 122.535 353.669 122.923 353.657C123.311 353.646 123.681 353.488 123.957 353.215C124.181 352.911 124.278 352.533 124.229 352.159C124.181 351.784 123.989 351.443 123.695 351.207" fill="white"/>
</g>
<g opacity="0.6">
<path opacity="0.6" d="M114.793 352.222L117.262 350.768L134.866 380.118C134.866 380.118 135.148 381.834 134.102 382.284L114.793 352.222Z" fill="white"/>
</g>
<path d="M133.11 361.395C132.953 361.489 132.42 360.788 131.479 360.349C130.537 359.91 129.679 359.941 129.659 359.774C129.638 359.606 130.61 359.272 131.751 359.774C132.891 360.276 133.267 361.343 133.11 361.395Z" fill="#263238"/>
<path d="M133.83 365.391C133.705 365.516 133.046 365.035 132.104 364.941C131.163 364.847 130.42 365.119 130.326 364.941C130.232 364.763 131.016 364.167 132.177 364.313C133.338 364.46 133.997 365.297 133.83 365.391Z" fill="#263238"/>
<path d="M131.206 369.606C131.09 369.491 131.687 368.811 132.733 368.675C133.779 368.539 134.542 369.02 134.459 369.156C134.375 369.292 133.674 369.156 132.816 369.271C131.959 369.386 131.31 369.742 131.206 369.606Z" fill="#263238"/>
<path d="M291.892 145.563C294.977 145.563 297.478 143.062 297.478 139.977C297.478 136.893 294.977 134.392 291.892 134.392C288.807 134.392 286.307 136.893 286.307 139.977C286.307 143.062 288.807 145.563 291.892 145.563Z" fill="#263238"/>
<path d="M228.756 88.7446C234.79 90.2116 240.309 93.2989 244.717 97.6734C249.124 102.048 252.253 107.543 253.766 113.566C256.067 122.3 261.171 160.804 261.171 160.804L291.945 137.049L301.463 149.695L273.295 181.724C267.019 189.328 254.728 191.138 245.377 188C234.76 184.433 234.216 177.09 235.429 165.96L228.756 88.7446Z" fill="#FFBE9D"/>
<path d="M305.542 144.549L315.678 133.451L299.904 125.083C298.795 125.752 291.944 137.017 291.944 137.017L291.525 138.952C291.525 138.952 301.243 149.517 301.515 149.695C301.787 149.873 305.542 144.549 305.542 144.549Z" fill="#FFBE9D"/>
<path d="M315.041 134.455C315.041 134.455 314.989 134.591 314.864 134.748C313.818 136.076 308.786 141.285 307.929 140.909C307.071 140.532 305.544 138.356 306.077 137.551C306.611 136.746 312.657 131.191 312.657 131.191C312.657 131.191 313.703 130.375 315.449 131.631C316.558 132.405 315.041 134.455 315.041 134.455Z" fill="#FFBE9D"/>
<path d="M313.659 129.56C313.659 129.56 313.606 129.696 313.491 129.852C312.445 131.191 307.403 136.4 306.546 136.013C305.688 135.626 304.171 133.472 304.705 132.656C305.238 131.84 311.274 126.296 311.274 126.296C311.274 126.296 312.32 125.48 314.077 126.735C315.186 127.52 313.659 129.56 313.659 129.56Z" fill="#FFBE9D"/>
<path d="M311.462 125.689C311.462 125.689 311.41 125.825 311.284 125.982C310.238 127.311 305.196 132.52 304.339 132.143C303.481 131.767 301.964 129.591 302.498 128.775C303.031 127.959 309.067 122.415 309.067 122.415C309.067 122.415 310.113 121.599 311.87 122.865C312.979 123.639 311.462 125.689 311.462 125.689Z" fill="#FFBE9D"/>
<path d="M309.213 121.882C309.213 121.882 309.161 122.018 309.035 122.175C307.989 123.514 302.958 128.723 302.1 128.336C301.243 127.949 299.726 125.794 300.259 124.978C300.793 124.162 306.828 118.618 306.828 118.618C306.828 118.618 307.874 117.802 309.632 119.058C310.772 119.842 309.213 121.882 309.213 121.882Z" fill="#FFBE9D"/>
<path d="M307.52 135.982C308.498 135.309 309.394 134.523 310.187 133.639C311.067 132.868 311.847 131.989 312.509 131.024C311.521 131.685 310.621 132.469 309.831 133.357C308.944 134.122 308.166 135.005 307.52 135.982V135.982Z" fill="#EB996E"/>
<path d="M304.381 133.053C305.732 132.046 306.985 130.915 308.126 129.675C309.385 128.553 310.534 127.313 311.556 125.972C308.958 128.113 306.557 130.483 304.381 133.053V133.053Z" fill="#EB996E"/>
<g opacity="0.78">
<path opacity="0.78" d="M301.463 129.821C304.068 127.687 306.47 125.316 308.638 122.74C307.29 123.75 306.037 124.881 304.894 126.118C303.638 127.243 302.489 128.483 301.463 129.821Z" fill="#EB996E"/>
</g>
<path d="M295.48 137.52L296.181 131.557C296.49 128.947 297.794 126.557 299.821 124.884L301.369 123.618L311.254 133.984C311.254 133.984 306.851 136.829 304.643 133.44L305.166 138.994L295.48 137.52Z" fill="#FFBE9D"/>
<path d="M303.93 139.026C303.857 139.026 304.213 138.409 304.432 137.279C304.721 135.712 304.428 134.094 303.606 132.729L302.821 131.442L304.024 132.363L306.786 134.455H306.723C307.368 134.821 308.104 134.996 308.846 134.959C309.587 134.922 310.302 134.675 310.907 134.246C310.992 134.174 311.072 134.097 311.148 134.015V134.465C308.24 131.651 305.635 129.068 303.878 127.143C302.989 126.16 302.298 125.344 301.786 124.769C301.52 124.49 301.297 124.173 301.127 123.827C302.195 124.765 303.208 125.764 304.16 126.819C306.001 128.702 308.637 131.212 311.566 134.026L311.796 134.246L311.587 134.476C311.489 134.597 311.376 134.706 311.252 134.8C310.546 135.365 309.667 135.668 308.763 135.658C307.941 135.642 307.133 135.442 306.399 135.072V135.072L303.69 132.886L304.098 132.52C304.95 134.01 305.187 135.774 304.757 137.436C304.627 138.03 304.342 138.579 303.93 139.026V139.026Z" fill="#EB996E"/>
<path d="M308.995 134.832C309.11 134.884 308.65 135.459 308.472 136.411C308.428 136.66 308.458 136.917 308.561 137.148C308.664 137.379 308.833 137.574 309.048 137.708C309.359 137.806 309.691 137.821 310.011 137.752C310.33 137.682 310.625 137.53 310.868 137.311C312.112 136.317 313.336 135.449 314.121 134.779C314.905 134.11 315.376 133.618 315.46 133.681C315.543 133.744 315.198 134.329 314.414 135.124C313.411 136.107 312.342 137.02 311.213 137.854C310.879 138.143 310.472 138.334 310.036 138.406C309.6 138.478 309.153 138.429 308.744 138.262C308.421 138.069 308.171 137.775 308.033 137.425C307.895 137.075 307.877 136.689 307.981 136.327C308.097 135.893 308.308 135.489 308.598 135.145C308.828 134.915 308.964 134.811 308.995 134.832Z" fill="#EB996E"/>
<path d="M258.086 173.753C257.821 173.141 257.676 172.484 257.657 171.818C257.498 170.221 257.586 168.608 257.919 167.038C258.244 165.461 258.819 163.946 259.624 162.55C259.91 161.951 260.307 161.411 260.795 160.96C259.784 162.926 258.998 165 258.452 167.142C258.086 169.326 257.964 171.543 258.086 173.753V173.753Z" fill="#EB996E"/>
<path d="M288.324 139.34L300.144 151.222L303.366 147.488L291.671 136.672L288.324 139.34Z" fill="#263238"/>
<path d="M210.408 102.499C211.151 98.4409 208.891 93.5456 211.674 90.4913C213.598 88.3993 217.029 88.3993 219.257 86.6316C222.123 84.299 221.925 79.9895 222.249 76.318C222.792 70.3897 225.312 64.8159 229.404 60.492C231.046 58.7661 233.096 56.6846 232.416 54.4043C232.105 53.5989 231.627 52.8683 231.014 52.26L210.576 28.9551C208.975 26.9219 207.062 25.1565 204.906 23.7251C203.823 23.0202 202.587 22.5825 201.302 22.448C200.016 22.3134 198.717 22.4858 197.511 22.9511C193.411 24.8443 192.71 30.3672 189.791 33.8086C187.156 36.9466 182.7 38.2959 180.754 41.8732C178.903 45.2936 179.896 49.7914 177.836 53.0863C175.095 57.49 168.254 57.7515 165.399 62.0819C162.899 65.8685 164.353 71.4332 161.529 74.9582C158.945 78.159 154.207 78.159 150.389 79.7803C150.389 79.7803 154.73 84.55 156.665 87.2905C158.6 90.0311 165.284 90.2403 168.223 88.2424C171.162 86.2445 171.748 84.55 173.558 82.6568C175.016 81.3259 176.698 80.2635 178.526 79.5188C178.526 79.5188 173.212 83.5249 173.558 85.3031C173.903 87.0813 168.641 93.6084 167.386 93.1795C166.131 92.7507 181.256 102.489 181.256 102.489L210.408 102.499Z" fill="#263238"/>
<path d="M236.287 23.5056C236.078 26.288 237.919 28.7356 239.77 30.8276C241.622 32.9196 243.693 35.0953 244.09 37.8567C244.802 42.752 240.001 47.2707 240.952 52.1451C241.486 54.7496 243.609 56.8416 243.986 59.4671C244.362 62.0926 242.992 64.4984 241.308 66.4335C239.624 68.3686 237.563 69.9689 236.078 72.0609C234.593 74.1529 233.641 76.8725 232.511 79.3202C231.382 81.7678 229.865 84.2155 227.49 85.502C223.913 87.4476 218.913 86.548 216.173 89.5396C213.432 92.5312 214.363 97.7402 211.1 99.9264" fill="#263238"/>
<path d="M193.485 27.7628C193.412 25.2419 195.744 23.2859 198.098 22.3654C200.451 21.445 203.035 21.0893 205.127 19.6772C206.989 18.4325 208.265 16.4765 209.803 14.8865C211.741 12.9239 214.167 11.512 216.831 10.7958C219.495 10.0796 222.301 10.0848 224.962 10.8108C227.624 11.5368 230.044 12.9575 231.975 14.9273C233.907 16.8971 235.279 19.3451 235.953 22.0203C236.852 25.6185 236.235 29.8757 233.4 32.2606C230.105 35.043 225.231 34.4258 221.016 33.5576C216.8 32.6895 212.031 31.8422 208.464 34.3212C206.372 35.817 205.127 38.2437 203.83 40.4926C202.533 42.7415 200.901 45.0323 198.443 45.8795C195.985 46.7268 192.659 45.2624 192.564 42.6683" fill="#263238"/>
<path d="M203.443 28.2857C202.389 28.3912 201.415 28.8924 200.716 29.6883C200.017 30.4843 199.646 31.5156 199.678 32.5743V32.5743L202.199 89.6546C202.303 96.3908 212.156 100.188 219.374 100.02C226.696 99.8426 226.895 96.2757 226.989 89.8533C227.135 79.1422 227.125 75.1256 227.125 75.2093C227.125 75.293 236.34 73.6612 238.212 61.6113C239.154 55.6386 238.829 45.8376 238.306 37.8357C237.836 30.6288 233.076 21.7901 225.859 22.5641L203.443 28.2857Z" fill="#FFBE9D"/>
<path d="M236.026 44.6976C236.032 45.0984 235.881 45.4855 235.605 45.7767C235.33 46.0678 234.951 46.2398 234.551 46.2561C234.355 46.2733 234.158 46.2508 233.971 46.1901C233.784 46.1295 233.612 46.0318 233.463 45.903C233.315 45.7741 233.194 45.6168 233.108 45.4402C233.021 45.2637 232.972 45.0716 232.961 44.8754C232.955 44.4736 233.106 44.0853 233.381 43.7925C233.656 43.4997 234.035 43.3254 234.436 43.3064C234.632 43.2908 234.83 43.3146 235.017 43.3765C235.204 43.4383 235.376 43.537 235.524 43.6667C235.673 43.7963 235.793 43.9544 235.879 44.1314C235.966 44.3085 236.015 44.501 236.026 44.6976V44.6976Z" fill="#263238"/>
<path d="M236.192 42.93C236.004 43.1392 234.832 42.271 233.169 42.2815C231.506 42.2919 230.303 43.1183 230.125 42.9195C229.948 42.7208 230.23 42.4698 230.753 42.0828C231.471 41.5821 232.326 41.3154 233.201 41.3192C234.065 41.3138 234.908 41.5851 235.607 42.0932C236.109 42.4802 236.286 42.8463 236.192 42.93Z" fill="#263238"/>
<path d="M219.521 45.0951C219.526 45.4976 219.374 45.8863 219.096 46.1777C218.819 46.4691 218.438 46.64 218.035 46.6536C217.839 46.6693 217.642 46.6454 217.455 46.5836C217.268 46.5217 217.095 46.423 216.947 46.2934C216.799 46.1637 216.678 46.0057 216.592 45.8286C216.506 45.6516 216.456 45.459 216.445 45.2624C216.442 44.8607 216.596 44.4735 216.873 44.1827C217.15 43.8919 217.529 43.7202 217.931 43.7039C218.127 43.6882 218.324 43.7121 218.511 43.7739C218.698 43.8358 218.871 43.9345 219.019 44.0641C219.167 44.1938 219.288 44.3518 219.374 44.5289C219.46 44.7059 219.51 44.8984 219.521 45.0951V45.0951Z" fill="#263238"/>
<path d="M219.896 43.2749C219.708 43.4842 218.536 42.616 216.873 42.6264C215.21 42.6369 214.007 43.4632 213.819 43.2645C213.631 43.0657 213.924 42.8147 214.457 42.4277C215.175 41.9271 216.03 41.6604 216.905 41.6641C217.765 41.661 218.604 41.9321 219.3 42.4381C219.771 42.8252 219.99 43.1913 219.896 43.2749Z" fill="#263238"/>
<path d="M225.942 55.555C226.813 55.2736 227.717 55.1083 228.631 55.0634C229.06 55.0111 229.457 54.9274 229.53 54.645C229.562 54.2066 229.46 53.769 229.237 53.3898L227.982 50.1681C226.235 45.5762 224.97 41.8001 225.148 41.7374C225.325 41.6746 226.905 45.3356 228.652 49.9171C229.07 51.0468 229.478 52.1241 229.865 53.1597C230.127 53.6725 230.204 54.2597 230.085 54.8228C230.024 54.973 229.929 55.1068 229.807 55.2139C229.685 55.321 229.54 55.3984 229.384 55.44C229.153 55.5069 228.913 55.5421 228.673 55.5446C227.767 55.6637 226.849 55.6672 225.942 55.555V55.555Z" fill="#263238"/>
<path d="M227.094 75.1779C221.438 75.2798 215.866 73.8096 210.996 70.9312C210.996 70.9312 214.919 79.1736 226.948 78.023L227.094 75.1779Z" fill="#EB996E"/>
<path d="M225.251 59.5612C224.931 59.1668 224.518 58.8587 224.048 58.665C223.579 58.4714 223.068 58.3983 222.563 58.4524C222.195 58.4911 221.839 58.6038 221.515 58.7835C221.191 58.9632 220.908 59.2064 220.68 59.4984C220.462 59.7765 220.333 60.1144 220.31 60.4674C220.288 60.8204 220.373 61.1719 220.555 61.4754C220.823 61.7716 221.172 61.9822 221.559 62.0809C221.946 62.1795 222.353 62.1617 222.73 62.0297C223.506 61.7482 224.217 61.3143 224.822 60.7536C225.013 60.6224 225.176 60.4555 225.304 60.262C225.365 60.1707 225.397 60.0633 225.397 59.9534C225.397 59.8435 225.365 59.7361 225.304 59.6449" fill="#EB996E"/>
<path d="M221.058 56.716C221.33 56.716 221.34 58.5047 222.878 59.7808C224.416 61.0569 226.34 60.8268 226.361 61.0987C226.382 61.3707 225.932 61.4544 225.116 61.4753C224.057 61.484 223.029 61.1129 222.219 60.4293C221.434 59.7906 220.927 58.8717 220.807 57.8666C220.744 57.1553 220.943 56.7055 221.058 56.716Z" fill="#263238"/>
<path d="M220.638 40.3776C220.47 40.8274 218.818 40.6182 216.872 40.8483C214.927 41.0784 213.347 41.6224 213.096 41.2249C212.981 41.0261 213.253 40.6077 213.881 40.1789C214.727 39.6445 215.683 39.3085 216.677 39.1962C217.672 39.0839 218.679 39.1981 219.623 39.5304C220.345 39.8023 220.701 40.158 220.638 40.3776Z" fill="#263238"/>
<path d="M235.576 38.139C235.284 38.5156 234.143 38.139 232.763 38.139C231.382 38.139 230.231 38.4005 229.959 38.003C229.844 37.8147 230.022 37.4382 230.535 37.0825C231.213 36.645 232.009 36.4259 232.815 36.4549C233.621 36.468 234.403 36.7312 235.053 37.2081C235.545 37.5637 235.702 37.9507 235.576 38.139Z" fill="#263238"/>
<path d="M195.053 67.8142C196.713 68.1474 198.428 68.0811 200.058 67.6209C201.687 67.1606 203.184 66.3196 204.424 65.1671C205.664 64.0146 206.613 62.5837 207.191 60.9925C207.77 59.4013 207.962 57.6953 207.751 56.0153C207.375 53.0656 205.785 50.0636 206.81 47.2708C208.159 43.5784 213.337 42.4383 214.707 38.7563C215.502 36.6643 214.791 34.1121 215.69 32.0096C216.59 29.9072 218.619 28.8716 220.648 28.1708C222.678 27.47 224.832 26.9365 226.527 25.6186C228.221 24.3006 229.288 21.8007 228.19 19.9597C219.215 21.0326 210.401 23.1746 201.935 26.3403C199.969 27.0725 197.908 27.9512 196.758 29.6875C195.607 31.4239 195.586 33.8715 195.712 36.1309L197.218 68.4941" fill="#263238"/>
<path d="M213.798 19.5413C213.597 19.8207 213.369 20.0799 213.118 20.3153C212.396 20.9904 211.56 21.5322 210.649 21.9157C209.202 22.4929 207.674 22.8457 206.12 22.9617C204.31 23.1813 202.229 23.1395 199.97 23.1918C197.508 23.192 195.071 23.6864 192.804 24.6457C191.569 25.2457 190.518 26.167 189.761 27.313C189.033 28.5658 188.448 29.8954 188.014 31.2774C187.522 32.8117 186.522 34.1326 185.179 35.0221C183.727 35.7556 182.197 36.3239 180.619 36.7166C179.043 37.1029 177.654 38.0326 176.696 39.342C175.826 40.786 175.23 42.3782 174.939 44.0386C174.623 45.7465 174.125 47.4156 173.453 49.0175C172.697 50.5505 171.628 51.9081 170.315 53.0028C169.052 54.0626 167.586 54.8528 166.006 55.3249C164.492 55.7276 162.928 55.9142 161.362 55.8793C159.933 55.8338 158.511 56.0757 157.178 56.5906C156.572 56.8774 156.02 57.2666 155.546 57.7412C155.102 58.2314 154.722 58.7762 154.416 59.3625C153.245 61.716 152.868 64.2578 151.822 66.3288C150.851 68.1914 149.342 69.7186 147.492 70.7116C146.118 71.4661 144.599 71.919 143.036 72.04C142.051 72.1112 141.061 72.0407 140.097 71.8308C139.762 71.7471 139.521 71.653 139.364 71.6111L139.113 71.517C140.388 71.8324 141.706 71.9384 143.015 71.8308C144.54 71.6765 146.016 71.2024 147.345 70.4396C149.121 69.4591 150.557 67.9639 151.467 66.151C152.513 64.1427 152.816 61.6218 154.019 59.1533C154.335 58.5257 154.736 57.9448 155.211 57.4274C155.72 56.9003 156.319 56.4682 156.979 56.1513C158.38 55.5994 159.878 55.3361 161.383 55.3772C162.903 55.3996 164.419 55.2167 165.891 54.8333C167.398 54.3713 168.796 53.6099 170.002 52.5949C171.259 51.5493 172.279 50.2477 172.993 48.777C173.651 47.2132 174.135 45.5822 174.437 43.9131C174.743 42.185 175.368 40.5288 176.278 39.0282C176.773 38.3035 177.414 37.6906 178.16 37.2291C178.89 36.7885 179.669 36.4374 180.483 36.1831C182.025 35.8094 183.52 35.262 184.939 34.5514C186.195 33.732 187.127 32.5003 187.574 31.0682C188.031 29.6547 188.645 28.2968 189.405 27.0202C190.223 25.845 191.343 24.9126 192.648 24.3215C194.963 23.3424 197.456 22.8545 199.97 22.8885C202.26 22.8885 204.3 22.8885 206.099 22.7316C207.632 22.6265 209.14 22.2952 210.576 21.7483C211.789 21.24 212.886 20.4889 213.798 19.5413V19.5413Z" fill="#263238"/>
<path d="M204.845 86.3701C190.442 87.7299 180.84 92.9599 173.518 100.041L183.162 128.848C183.162 128.848 192.053 145.814 191.446 157.875C190.839 169.935 184.982 174.924 180.202 191.211L246.643 200.938C246.643 200.938 242.899 162.038 242.093 153.597C241.288 145.155 251.141 134.319 248.171 123.116C241.57 98.2422 231.707 89.6441 231.707 89.6441C231.707 89.6441 217.314 84.3618 204.845 86.3701Z" fill="#D9B88E"/>
<path d="M185.785 177.173C186.631 177.722 187.61 178.032 188.617 178.069C189.625 178.105 190.623 177.868 191.507 177.383C193.267 176.38 194.737 174.938 195.774 173.199C197.866 170.061 199.258 166.347 198.735 162.655C198.212 158.963 195.293 155.469 191.57 155.166C191.57 155.166 191.256 160.396 190.921 162.08C190.586 163.764 185.785 177.173 185.785 177.173Z" fill="#FFBE9D"/>
<path d="M232.406 128.775C232.398 129.13 232.342 129.482 232.238 129.821C232.018 130.8 231.717 131.758 231.339 132.687C230.093 135.787 228.148 138.558 225.655 140.782C223.162 143.007 220.188 144.625 216.967 145.511C215.998 145.789 215.008 145.985 214.007 146.097C213.642 146.147 213.273 146.147 212.908 146.097C212.908 145.992 214.467 145.856 216.852 145.103C219.974 144.134 222.851 142.505 225.29 140.326C227.728 138.148 229.669 135.472 230.983 132.478C231.998 130.26 232.322 128.712 232.406 128.775Z" fill="#263238"/>
<path d="M235.606 158.795C235.573 159.232 235.489 159.664 235.355 160.082C235.248 160.581 235.112 161.073 234.947 161.557C234.77 162.132 234.581 162.791 234.299 163.492C233.681 165.154 232.95 166.772 232.113 168.335C230.039 172.165 227.35 175.628 224.153 178.585C222.838 179.788 221.44 180.896 219.969 181.901C218.996 182.591 217.979 183.216 216.925 183.774C216.549 184.005 216.149 184.194 215.732 184.338C215.732 184.244 217.333 183.366 219.739 181.587C221.148 180.548 222.493 179.423 223.766 178.219C226.884 175.261 229.536 171.847 231.632 168.094C232.482 166.561 233.24 164.979 233.901 163.356C235.063 160.573 235.512 158.764 235.606 158.795Z" fill="#263238"/>
<g opacity="0.3">
<path opacity="0.3" d="M235.061 160.741C232.582 164.716 228.785 169.036 224.099 170.5C222.091 171.138 219.978 171.347 217.917 171.818C215.829 172.177 213.893 173.145 212.353 174.6C211.566 175.263 211.02 176.167 210.799 177.172C210.578 178.177 210.694 179.226 211.13 180.158C211.566 181.09 212.298 181.852 213.211 182.326C214.124 182.8 215.168 182.96 216.181 182.78C218.098 182.545 219.923 181.825 221.484 180.688C228.461 176.159 232.865 169.046 235.082 160.72" fill="black"/>
</g>
<path d="M198.223 87.3953C198.351 87.5881 198.462 87.791 198.557 88.0019C198.767 88.4099 199.049 89.0479 199.415 89.8115C200.137 91.391 201.152 93.6922 202.239 96.6105C203.522 100.016 204.55 103.513 205.315 107.071C206.258 111.45 206.635 115.932 206.434 120.407C206.243 124.894 205.277 129.314 203.578 133.472C202.166 136.859 200.189 139.982 197.731 142.708C196.079 144.535 194.185 146.129 192.104 147.446C191.361 147.906 190.765 148.231 190.357 148.429C190.154 148.545 189.94 148.64 189.719 148.712C189.719 148.712 190.556 148.241 191.989 147.268C194.002 145.894 195.836 144.275 197.449 142.446C199.827 139.725 201.739 136.629 203.108 133.283C204.757 129.18 205.698 124.826 205.89 120.407C206.091 115.98 205.739 111.546 204.844 107.207C204.103 103.656 203.117 100.161 201.894 96.7465C200.848 93.8282 199.907 91.5165 199.248 89.9057C198.924 89.1525 198.673 88.5354 198.474 88.0647C198.365 87.8518 198.281 87.6272 198.223 87.3953Z" fill="#FAFAFA"/>
<path d="M201.842 86.9351C201.986 87.1437 202.112 87.3641 202.219 87.594C202.449 88.0334 202.784 88.64 203.202 89.5396C204.018 91.2341 205.169 93.7236 206.403 96.8616C207.852 100.548 208.996 104.347 209.823 108.221C210.859 112.979 211.211 117.861 210.869 122.719C210.524 127.591 209.249 132.352 207.114 136.746C205.336 140.299 202.914 143.491 199.97 146.16C197.98 147.958 195.735 149.453 193.307 150.595C192.651 150.903 191.976 151.172 191.288 151.4C191.054 151.494 190.813 151.568 190.566 151.62C190.566 151.557 191.539 151.243 193.223 150.396C195.585 149.199 197.767 147.678 199.708 145.877C202.579 143.187 204.936 139.997 206.664 136.463C208.743 132.117 209.985 127.419 210.325 122.614C210.67 117.808 210.342 112.978 209.353 108.263C208.55 104.408 207.452 100.621 206.068 96.9348C204.886 93.7968 203.788 91.2864 203.024 89.5605L202.146 87.5836C202.02 87.3797 201.918 87.1621 201.842 86.9351V86.9351Z" fill="#FAFAFA"/>
<path d="M242.312 115.668C241.392 116.378 240.316 116.858 239.174 117.07C238.082 117.46 236.913 117.586 235.764 117.436C236.826 117.054 237.918 116.756 239.027 116.547C240.097 116.168 241.195 115.875 242.312 115.668V115.668Z" fill="#FAFAFA"/>
<path d="M241.423 117.782C240.596 118.278 239.685 118.615 238.734 118.775C237.83 119.104 236.872 119.256 235.91 119.225C236.74 118.739 237.651 118.406 238.598 118.242C239.503 117.914 240.461 117.758 241.423 117.782V117.782Z" fill="#FAFAFA"/>
<path d="M202.041 86.6945C202.041 86.6945 208.192 98.4202 223.63 96.6838C232.553 95.6378 227.124 87.8765 227.124 87.8765C227.124 87.8765 218.798 83.0126 202.041 86.6945Z" fill="#FFBE9D"/>
<path d="M246.506 200.259L250.377 272.433C250.986 278.138 249.942 283.899 247.37 289.028C244.798 294.158 240.805 298.44 235.869 301.365L156.582 349.837L142.816 331.699L215.44 275.623L208.118 195.29L246.506 200.259Z" fill="#263238"/>
<path d="M181.121 191.211L179.155 195.52C174.908 204.861 173.925 216.921 177.209 225.467C180.494 234.013 185.724 241 194.092 248.479L232.323 283.457C233.827 284.838 234.962 286.572 235.626 288.503C236.289 290.434 236.459 292.5 236.12 294.514L223.076 374.229L248.295 377.723L269.885 296.919C272.259 286.826 271.454 281.083 266.381 272.035L214.949 196.305L181.121 191.211Z" fill="#263238"/>
<path d="M264.748 269.566C264.571 269.375 264.41 269.169 264.267 268.949L262.97 267.14L258.295 260.414L243.023 238.113L227.898 215.718L223.358 208.898L222.145 207.026C221.996 206.815 221.867 206.591 221.758 206.357C221.939 206.545 222.1 206.752 222.239 206.974L223.536 208.783L228.212 215.509L243.483 237.81L258.608 260.194C260.502 263.039 262.039 265.362 263.148 267.014C263.65 267.799 264.048 268.416 264.361 268.887C264.507 269.103 264.636 269.331 264.748 269.566V269.566Z" fill="#455A64"/>
<path d="M232.092 324.858C232.075 324.642 232.075 324.425 232.092 324.21C232.144 323.739 232.217 323.164 232.301 322.337C232.51 320.664 232.803 318.3 233.159 315.35C233.943 309.346 235.031 300.947 236.297 291.187V291.271C235.794 288.933 234.715 286.758 233.159 284.943C231.503 282.993 229.714 281.162 227.803 279.462C217.918 270.257 208.734 262.192 202.207 256.209C198.944 253.218 196.318 250.78 194.53 249.075L192.438 247.098L191.915 246.565C191.789 246.45 191.737 246.387 191.747 246.377C191.758 246.366 191.821 246.377 191.946 246.523L192.511 247.015L194.603 248.919L202.406 255.916C208.985 261.826 218.222 269.849 228.106 279.064C230.043 280.78 231.854 282.633 233.525 284.608C235.125 286.496 236.229 288.754 236.736 291.177V291.261C235.387 300.999 234.236 309.388 233.41 315.392C232.981 318.342 232.646 320.695 232.364 322.369C232.238 323.143 232.144 323.76 232.071 324.22C232.1 324.431 232.107 324.645 232.092 324.858V324.858Z" fill="#455A64"/>
<path d="M221.862 288.865C221.194 288.515 220.592 288.051 220.083 287.495C217.472 284.917 215.775 281.556 215.251 277.924C215.112 277.181 215.112 276.418 215.251 275.675C215.636 278.159 216.365 280.578 217.416 282.861C218.618 285.056 220.114 287.076 221.862 288.865Z" fill="#455A64"/>
<path d="M225.805 212.288C225.982 211.389 226.338 210.536 226.851 209.777C227.21 208.939 227.728 208.179 228.378 207.539C228.201 208.434 227.845 209.284 227.332 210.039C226.975 210.881 226.456 211.645 225.805 212.288V212.288Z" fill="#455A64"/>
<path d="M195.712 30.6915C195.211 26.9409 193.35 23.5049 190.482 21.037C188.17 19.081 185.011 17.8153 182.114 18.6207C180.77 19.0351 179.574 19.8276 178.669 20.9034C177.764 21.9792 177.188 23.2929 177.009 24.6875C176.868 26.0861 177.082 27.4978 177.63 28.7921C178.178 30.0864 179.044 31.2217 180.147 32.0932C181.264 32.9451 182.551 33.5452 183.922 33.8521C185.292 34.1591 186.713 34.1656 188.086 33.8714C190.67 33.3275 193.149 31.7794 195.753 32.2292" fill="#263238"/>
<path d="M155.516 85.0522C157.101 84.8015 158.654 84.3807 160.149 83.797C164.21 82.1424 167.584 79.1492 169.71 75.314C170.415 74.0612 170.953 72.7214 171.31 71.3287C171.718 69.8853 171.833 68.3058 172.231 66.695C172.427 65.8665 172.733 65.068 173.141 64.3205C173.59 63.5457 174.217 62.8894 174.971 62.4064C176.579 61.5614 178.308 60.972 180.097 60.6595C180.995 60.5234 181.856 60.21 182.632 59.7378C183.408 59.2655 184.082 58.6437 184.615 57.9086C185.588 56.3291 185.661 54.3208 185.923 52.3543C186.015 51.3334 186.193 50.3221 186.456 49.3314C186.733 48.2964 187.269 47.3493 188.015 46.5804C189.605 45.0323 191.812 44.6034 193.757 43.934C194.734 43.6331 195.654 43.1698 196.477 42.5637C197.245 41.9377 197.789 41.0785 198.025 40.1161C198.538 38.181 198.224 36.0785 198.925 34.0807C199.265 33.0848 199.927 32.2308 200.807 31.654C201.655 31.1251 202.585 30.7399 203.558 30.5138C205.42 30.0117 207.314 29.7189 208.788 28.6624C210.146 27.5662 211.177 26.1192 211.77 24.4784C212.428 22.8885 212.941 21.2672 213.631 19.7714C213.969 19.0414 214.368 18.3415 214.824 17.6794C215.284 17.0373 215.818 16.451 216.414 15.9326C217.55 14.9649 218.88 14.2516 220.315 13.8406C221.536 13.4754 222.819 13.3594 224.085 13.4996C225.352 13.6397 226.578 14.0331 227.69 14.6565C229.356 15.6131 230.719 17.0196 231.623 18.7149C232.181 19.7803 232.535 20.9402 232.669 22.1354C232.717 22.5489 232.717 22.9666 232.669 23.3801C232.669 23.3801 232.669 22.9512 232.522 22.1458C232.343 20.9767 231.953 19.8497 231.372 18.8195C230.458 17.1856 229.112 15.8355 227.48 14.918C226.4 14.3313 225.214 13.9663 223.99 13.8441C222.767 13.722 221.532 13.8452 220.357 14.2067C218.989 14.6024 217.72 15.2833 216.633 16.2045C216.067 16.7015 215.562 17.2632 215.127 17.8781C214.685 18.5395 214.303 19.2397 213.987 19.9701C213.318 21.4345 212.826 23.1081 212.157 24.6771C211.545 26.4165 210.458 27.9495 209.019 29.1017C207.46 30.2628 205.493 30.5557 203.684 31.0577C202.765 31.2646 201.886 31.6178 201.079 32.1037C200.293 32.6201 199.703 33.3866 199.406 34.2794C198.757 36.089 199.061 38.1915 198.527 40.2625C198.272 41.337 197.673 42.299 196.822 43.0031C195.953 43.6564 194.976 44.1521 193.935 44.4675C191.937 45.1474 189.814 45.5867 188.391 46.9883C186.969 48.39 186.665 50.4924 186.456 52.4275C186.247 54.3626 186.132 56.4651 185.055 58.2014C184.527 59.0512 183.779 59.7417 182.889 60.1993C182.041 60.6261 181.146 60.9526 180.222 61.1721C178.484 61.4637 176.801 62.0211 175.233 62.8247C174.562 63.2903 173.991 63.8839 173.551 64.5715C173.111 65.2591 172.812 66.027 172.67 66.8309C172.273 68.3895 172.147 69.9689 171.718 71.4542C171.342 72.8767 170.783 74.2444 170.055 75.5232C168.812 77.7224 167.149 79.6557 165.16 81.2134C163.67 82.397 162.004 83.3394 160.223 84.0062C159.106 84.4434 157.945 84.7557 156.76 84.9372L155.84 85.0313C155.733 85.05 155.624 85.0571 155.516 85.0522V85.0522Z" fill="#455A64"/>
<path d="M180.536 31.4971C180.536 31.4971 180.233 31.4238 179.846 31.0473C179.303 30.4763 178.968 29.7396 178.894 28.9553C178.846 28.3886 178.914 27.8181 179.094 27.2785C179.273 26.739 179.561 26.2418 179.94 25.8173C180.881 24.7756 182.144 24.0795 183.528 23.8403C184.875 23.6213 186.249 23.6213 187.597 23.8403C188.691 23.9948 189.767 24.2612 190.808 24.6353C191.506 24.8824 192.185 25.1832 192.837 25.5349C193.287 25.7964 193.527 25.9637 193.507 25.9951C193.486 26.0265 192.461 25.5349 190.682 24.9491C189.658 24.6374 188.608 24.4169 187.544 24.2901C186.248 24.1132 184.933 24.1344 183.643 24.3529C182.373 24.5678 181.208 25.1923 180.327 26.1311C179.971 26.5047 179.695 26.9468 179.515 27.4305C179.335 27.9142 179.255 28.4294 179.281 28.9448C179.325 29.6501 179.576 30.3268 180.003 30.8904C180.316 31.3297 180.557 31.4971 180.536 31.4971Z" fill="#455A64"/>
<path d="M186.236 34.3213C186.036 33.7741 186.01 33.1786 186.162 32.6163C186.391 31.2164 187.116 29.9457 188.206 29.037C189.295 28.1284 190.675 27.6426 192.093 27.6687C192.672 27.6302 193.25 27.761 193.756 28.0453C193.756 28.1394 193.108 27.9825 192.104 28.0453C190.803 28.1394 189.562 28.6284 188.547 29.4469C187.56 30.2955 186.859 31.4278 186.539 32.6895C186.298 33.6727 186.298 34.3213 186.236 34.3213Z" fill="#455A64"/>
<path d="M194.259 88.2634C181.561 90.5019 172.209 101.474 172.209 101.474C171.702 101.956 171.233 102.477 170.808 103.033C158.12 120.156 135.129 151.724 134.281 157.09C132.827 166.159 159.783 213.344 159.783 213.344L174.552 208.553L159.908 161.232L183.161 128.775L189.437 144.559C213.495 131.149 194.259 88.2634 194.259 88.2634Z" fill="#FFBE9D"/>
<path d="M185.305 134.361L200.179 130.626C200.179 130.626 198.432 138.095 193.401 141.756L189.06 143.681L185.305 134.361Z" fill="#263238"/>
<path d="M160.147 214.15L164.562 228.511L179.666 219.578L180.576 215.625C180.776 214.737 180.728 213.812 180.436 212.95C180.145 212.088 179.621 211.323 178.923 210.74L173.505 206.242L172.061 204.893C172.061 204.893 158.024 207.905 157.731 208.031C157.438 208.156 160.147 214.15 160.147 214.15Z" fill="#FFBE9D"/>
<path d="M163.988 227.496C163.988 227.496 163.904 227.381 163.831 227.193C163.193 225.645 161.278 218.637 162.053 218.093C162.827 217.549 165.452 217.34 165.881 218.208C166.31 219.076 167.973 227.099 167.973 227.099C167.973 227.099 168.172 228.386 166.174 229.285C164.981 229.839 163.988 227.496 163.988 227.496Z" fill="#FFBE9D"/>
<path d="M168.902 228.794C168.902 228.794 168.818 228.679 168.735 228.501C168.107 226.942 166.193 219.934 166.956 219.39C167.72 218.846 170.356 218.637 170.785 219.505C171.214 220.373 172.929 228.396 172.929 228.396C172.929 228.396 173.117 229.683 171.13 230.582C169.896 231.147 168.902 228.794 168.902 228.794Z" fill="#FFBE9D"/>
<path d="M173.359 228.867C173.359 228.867 173.275 228.752 173.192 228.564C172.564 227.015 170.65 220.007 171.413 219.463C172.177 218.919 174.823 218.71 175.252 219.578C175.681 220.447 177.344 228.469 177.344 228.469C177.344 228.469 177.533 229.756 175.545 230.656C174.353 231.21 173.359 228.867 173.359 228.867Z" fill="#FFBE9D"/>
<path d="M177.773 228.867C177.773 228.867 177.689 228.752 177.616 228.564C176.978 227.015 175.064 220.007 175.827 219.463C176.591 218.919 179.237 218.71 179.666 219.578C180.095 220.447 181.758 228.469 181.758 228.469C181.758 228.469 181.957 229.756 179.959 230.656C178.767 231.21 177.773 228.867 177.773 228.867Z" fill="#FFBE9D"/>
<path d="M166.498 220.237C166.572 221.425 166.794 222.598 167.157 223.731C167.365 224.882 167.716 226.003 168.203 227.068C168.129 225.88 167.907 224.707 167.544 223.574C167.342 222.421 166.99 221.299 166.498 220.237V220.237Z" fill="#EB996E"/>
<path d="M170.609 219.024C170.804 220.702 171.155 222.358 171.655 223.972C171.992 225.623 172.478 227.241 173.109 228.804C172.901 227.128 172.551 225.473 172.063 223.856C171.725 222.205 171.239 220.588 170.609 219.024Z" fill="#EB996E"/>
<g opacity="0.78">
<path opacity="0.78" d="M174.885 218.166C175.092 219.842 175.442 221.497 175.931 223.114C176.267 224.766 176.754 226.383 177.385 227.946C177.19 226.268 176.84 224.612 176.339 222.999C176.003 221.347 175.516 219.729 174.885 218.166V218.166Z" fill="#EB996E"/>
</g>
<path d="M181.068 224.861C180.314 223.27 179.739 221.6 179.353 219.882C178.579 217.089 177.826 214.871 177.951 214.809C178.843 216.342 179.492 218.004 179.876 219.735C180.433 221.403 180.832 223.119 181.068 224.861V224.861Z" fill="#EB996E"/>
<path d="M193.38 125.041C192.767 125.076 192.152 125.076 191.539 125.041C190.081 125.08 188.647 125.422 187.328 126.043C186.008 126.664 184.832 127.551 183.872 128.649C183.512 129.149 183.125 129.627 182.711 130.082C182.859 129.464 183.153 128.89 183.569 128.409C184.497 127.185 185.708 126.205 187.098 125.551C188.488 124.897 190.015 124.589 191.55 124.654C192.182 124.636 192.809 124.769 193.38 125.041V125.041Z" fill="#EB996E"/>
<path d="M160.086 161.494C159.604 161.17 159.14 160.82 158.695 160.448C157.559 159.636 156.266 159.07 154.899 158.785C153.532 158.501 152.121 158.504 150.756 158.795C150.196 158.968 149.627 159.108 149.051 159.213C149.514 158.82 150.067 158.547 150.662 158.418C152.077 158.008 153.571 157.951 155.013 158.251C156.455 158.546 157.799 159.197 158.925 160.144C159.783 160.856 160.149 161.462 160.086 161.494Z" fill="#EB996E"/>
<path d="M405.51 255.247C405.51 255.247 393.125 301.742 391.838 336.207C390.364 375.526 405.102 422.209 405.102 422.209H338.754V442.847H430.655C430.655 442.847 412.622 366.175 415.07 328.153C416.703 304.333 420.52 280.712 426.471 257.59L405.51 255.247Z" fill="#263238"/>
<path d="M398.46 255.247C398.46 255.247 386.075 301.742 384.788 336.207C383.313 375.526 398.052 422.209 398.052 422.209H352.352C349.64 422.207 346.954 422.738 344.448 423.774C341.941 424.81 339.664 426.33 337.745 428.247C335.827 430.163 334.305 432.439 333.266 434.944C332.228 437.45 331.693 440.135 331.693 442.847H423.595C423.595 442.847 405.572 366.217 408.051 328.153C409.685 304.333 413.501 280.712 419.453 257.59L398.46 255.247Z" fill="#455A64"/>
<path d="M270.43 252.36C270.43 253.625 270.932 254.838 271.827 255.733C272.721 256.627 273.934 257.13 275.199 257.13H324.131V247.182L275.158 247.59C273.9 247.601 272.697 248.108 271.812 249.002C270.926 249.895 270.43 251.102 270.43 252.36V252.36Z" fill="#455A64"/>
<path d="M402.131 442.805H49.0645C45.5996 442.805 42.2766 441.429 39.8265 438.979C37.3764 436.529 36 433.206 36 429.741C36 426.276 37.3764 422.953 39.8265 420.503C42.2766 418.052 45.5996 416.676 49.0645 416.676H402.131C405.596 416.676 408.919 418.052 411.369 420.503C413.819 422.953 415.196 426.276 415.196 429.741C415.196 433.206 413.819 436.529 411.369 438.979C408.919 441.429 405.596 442.805 402.131 442.805Z" fill="#455A64"/>
<path d="M348.2 442.805H49.0645C45.5996 442.805 42.2766 441.429 39.8265 438.979C37.3764 436.529 36 433.206 36 429.741C36 426.276 37.3764 422.953 39.8265 420.503C42.2766 418.052 45.5996 416.676 49.0645 416.676H348.22C351.685 416.676 355.008 418.052 357.459 420.503C359.909 422.953 361.285 426.276 361.285 429.741C361.285 431.458 360.946 433.159 360.289 434.745C359.631 436.331 358.667 437.773 357.451 438.986C356.236 440.199 354.793 441.161 353.206 441.817C351.618 442.472 349.917 442.808 348.2 442.805V442.805Z" fill="#263238"/>
<path d="M320.314 255.247C320.314 255.247 307.929 301.742 306.642 336.207C305.168 375.526 319.906 422.209 319.906 422.209H253.568V442.847H345.47C345.47 442.847 327.426 366.175 329.885 328.153C331.511 304.333 335.324 280.712 341.275 257.59L320.314 255.247Z" fill="#263238"/>
<path d="M313.263 255.247C313.263 255.247 300.878 301.742 299.592 336.207C298.117 375.526 312.865 422.209 312.865 422.209H267.155C261.682 422.209 256.432 424.384 252.562 428.254C248.692 432.124 246.518 437.374 246.518 442.847H338.419C338.419 442.847 320.376 366.175 322.834 328.153C324.46 304.333 328.273 280.712 334.225 257.59L313.263 255.247Z" fill="#455A64"/>
<path d="M347.498 443.161C347.352 443.161 345.406 436.885 343.22 429.123C341.034 421.362 339.329 414.971 339.476 414.929C339.622 414.887 341.568 421.205 343.743 428.977C345.919 436.749 347.645 443.119 347.498 443.161Z" fill="#455A64"/>
<path d="M415.196 428.203C415.196 428.36 403.115 428.475 388.209 428.475C373.304 428.475 361.223 428.36 361.223 428.203C361.223 428.046 373.304 427.931 388.178 427.931C403.052 427.931 415.196 428.057 415.196 428.203Z" fill="#263238"/>
<path d="M410.489 442.805C410.489 442.753 411.022 442.481 411.943 441.822C413.226 440.886 414.334 439.732 415.217 438.412C416.635 436.225 417.444 433.699 417.559 431.096C417.675 428.492 417.094 425.905 415.876 423.601C415.124 422.324 414.199 421.159 413.125 420.138C412.068 419.262 410.838 418.617 409.516 418.245C407.248 417.591 404.916 417.184 402.56 417.032C400.542 416.875 398.899 416.822 397.77 416.781C397.179 416.79 396.588 416.755 396.002 416.676C396.586 416.584 397.178 416.549 397.77 416.571C398.91 416.571 400.552 416.571 402.592 416.645C404.987 416.744 407.364 417.119 409.673 417.764C411.067 418.149 412.364 418.822 413.481 419.741C414.599 420.793 415.564 421.997 416.347 423.318C417.124 424.652 417.652 426.115 417.905 427.638C418.111 429.051 418.146 430.484 418.01 431.906C417.79 434.325 416.938 436.644 415.541 438.632C414.604 439.961 413.426 441.103 412.068 442C411.577 442.293 411.19 442.512 410.918 442.638C410.646 442.763 410.499 442.826 410.489 442.805Z" fill="#263238"/>
<path d="M317.51 248.971L314.121 258.406L334.225 257.59L419.443 259.964L476.335 224.212L473.751 214.819L374.674 210.123L317.51 248.971Z" fill="#455A64"/>
<path d="M425.344 261.952L334.227 257.59L382.876 220.792L476.336 224.212L425.344 261.952Z" fill="#263238"/>
<path d="M321.757 246.084C321.291 246.614 320.764 247.088 320.188 247.496C318.851 248.543 317.599 249.694 316.443 250.937C315.325 252.183 314.408 253.594 313.723 255.121C313.497 255.794 313.228 256.45 312.918 257.088C312.931 256.368 313.084 255.658 313.368 254.996C313.962 253.353 314.868 251.84 316.035 250.54C317.207 249.27 318.52 248.136 319.947 247.161C320.501 246.725 321.109 246.363 321.757 246.084V246.084Z" fill="#263238"/>
<path d="M382.874 220.823C381.314 219.193 379.883 217.445 378.595 215.593C377.17 213.837 375.883 211.973 374.746 210.018C376.312 211.645 377.746 213.394 379.035 215.248C380.463 216.999 381.747 218.864 382.874 220.823V220.823Z" fill="#263238"/>
<path d="M337.07 257.998C335.89 258.083 334.705 258.083 333.524 257.998L324.968 257.799C321.631 257.705 318.608 257.58 316.412 257.444C315.229 257.425 314.05 257.309 312.887 257.098C314.067 257.009 315.252 257.009 316.433 257.098L324.989 257.297C328.326 257.391 331.349 257.517 333.545 257.653C334.728 257.667 335.907 257.783 337.07 257.998V257.998Z" fill="#263238"/>
<path d="M412.728 77.197C411.442 71.5277 406.055 66.6533 400.26 67.2286C398.551 67.4735 396.909 68.0635 395.434 68.9625C393.96 69.8616 392.684 71.0511 391.683 72.4586C390.937 73.3805 390.266 74.3598 389.675 75.3874C389.075 74.3623 388.401 73.3833 387.656 72.4586C386.655 71.0511 385.379 69.8616 383.904 68.9625C382.43 68.0635 380.788 67.4735 379.079 67.2286C373.284 66.6533 367.897 71.5277 366.61 77.197C365.324 82.8663 367.458 88.8913 370.962 93.5355C375.582 100.009 382.401 104.579 390.145 106.391C396.641 104.895 404.873 98.1798 408.377 93.5355C411.881 88.8913 414.015 82.8768 412.728 77.197Z" fill="#D9B88E"/>
<path d="M411.673 87.7197C411.425 87.7671 411.172 87.7882 410.919 87.7824L408.754 87.8347L400.815 87.9184L401.003 87.7824C400.303 90.3556 399.487 93.3681 398.587 96.663L398.378 97.4266L398.116 96.6734C396.694 92.6254 395.114 88.0858 393.441 83.3056L391.935 78.9437H392.426L387.196 87.7929L387.133 87.9812H386.997L373.023 87.8766L369.059 87.8138H368.013C367.772 87.8138 367.646 87.8138 367.646 87.8138H368.013H369.059L373.023 87.7511L386.997 87.6465L386.778 87.772L391.935 78.8914L392.227 78.3789L392.426 78.9333C392.918 80.3558 393.42 81.8098 393.943 83.2951C395.596 88.0753 397.154 92.6254 398.556 96.6839H398.085C399.016 93.3995 399.874 90.4079 400.595 87.8243V87.6778H400.752L408.692 87.7615H410.857C411.127 87.7294 411.4 87.7155 411.673 87.7197V87.7197Z" fill="#263238"/>
<path d="M373.786 122.614C373.786 124.152 372.416 125.114 370.335 125.114C368.253 125.114 366.914 124.152 366.914 122.614C366.911 122.208 367.026 121.81 367.245 121.469C367.464 121.127 367.778 120.856 368.148 120.69C367.856 120.521 367.614 120.276 367.448 119.982C367.283 119.688 367.199 119.354 367.207 119.016C367.207 117.583 368.483 116.684 370.345 116.684C372.207 116.684 373.483 117.583 373.483 119.016C373.489 119.355 373.403 119.689 373.236 119.983C373.068 120.277 372.825 120.521 372.531 120.69C372.905 120.853 373.224 121.122 373.447 121.464C373.67 121.806 373.788 122.206 373.786 122.614ZM371.872 122.552C371.872 121.83 371.286 121.391 370.335 121.391C369.383 121.391 368.828 121.83 368.828 122.552C368.828 123.273 369.404 123.734 370.335 123.734C371.265 123.734 371.872 123.273 371.872 122.552ZM369.079 119.089C369.079 119.707 369.571 120.135 370.335 120.135C371.098 120.135 371.621 119.748 371.621 119.089C371.621 118.43 371.109 118.043 370.335 118.043C369.56 118.043 369.079 118.451 369.079 119.089Z" fill="#263238"/>
<path d="M374.643 120.899C374.643 118.211 376.138 116.715 378.136 116.715C380.134 116.715 381.63 118.242 381.63 120.899C381.63 123.556 380.155 125.083 378.136 125.083C376.117 125.083 374.643 123.545 374.643 120.899ZM379.737 120.899C379.737 119.047 379.078 118.273 378.136 118.273C377.195 118.273 376.557 119.047 376.557 120.899C376.557 122.75 377.205 123.524 378.136 123.524C379.067 123.524 379.737 122.75 379.737 120.899Z" fill="#263238"/>
<path d="M392.508 121.914C392.532 122.325 392.469 122.736 392.325 123.122C392.181 123.508 391.958 123.859 391.671 124.154C391.384 124.449 391.038 124.682 390.657 124.836C390.275 124.991 389.865 125.064 389.454 125.052C388.983 125.07 388.515 124.963 388.1 124.74C387.684 124.518 387.335 124.188 387.09 123.786V124.999H386.295V116.328H387.132V120.01C387.386 119.626 387.733 119.314 388.141 119.101C388.549 118.889 389.004 118.784 389.464 118.797C389.873 118.786 390.28 118.86 390.659 119.014C391.038 119.168 391.381 119.398 391.667 119.691C391.952 119.983 392.175 120.332 392.319 120.714C392.464 121.097 392.528 121.505 392.508 121.914V121.914ZM391.682 121.914C391.663 121.465 391.513 121.031 391.25 120.667C390.987 120.302 390.622 120.023 390.202 119.865C389.782 119.706 389.324 119.675 388.885 119.774C388.447 119.874 388.048 120.1 387.737 120.425C387.427 120.75 387.219 121.159 387.139 121.601C387.059 122.043 387.111 122.499 387.288 122.912C387.466 123.325 387.761 123.677 388.136 123.923C388.512 124.17 388.952 124.3 389.402 124.299C389.711 124.304 390.019 124.244 390.305 124.125C390.59 124.005 390.848 123.828 391.063 123.604C391.277 123.38 391.442 123.115 391.549 122.824C391.655 122.533 391.701 122.223 391.682 121.914V121.914Z" fill="#263238"/>
<path d="M400.405 121.914C400.428 122.325 400.366 122.736 400.222 123.122C400.077 123.508 399.855 123.859 399.568 124.154C399.28 124.449 398.935 124.681 398.553 124.836C398.172 124.99 397.762 125.064 397.35 125.052C396.891 125.067 396.436 124.965 396.027 124.754C395.619 124.544 395.271 124.232 395.018 123.849V127.259H394.191V118.891H394.986V120.104C395.234 119.704 395.583 119.376 395.999 119.154C396.414 118.932 396.88 118.823 397.35 118.838C397.756 118.827 398.161 118.898 398.538 119.049C398.915 119.2 399.257 119.426 399.544 119.714C399.83 120.003 400.054 120.346 400.202 120.725C400.35 121.103 400.419 121.508 400.405 121.914V121.914ZM399.578 121.914C399.56 121.465 399.41 121.032 399.147 120.668C398.885 120.303 398.521 120.025 398.101 119.866C397.681 119.706 397.224 119.674 396.786 119.773C396.348 119.872 395.948 120.097 395.637 120.421C395.326 120.745 395.117 121.153 395.036 121.594C394.955 122.036 395.006 122.492 395.182 122.905C395.357 123.318 395.651 123.67 396.025 123.918C396.4 124.166 396.839 124.298 397.288 124.298C397.598 124.303 397.906 124.244 398.192 124.125C398.478 124.005 398.737 123.828 398.952 123.604C399.167 123.381 399.333 123.115 399.441 122.824C399.549 122.533 399.596 122.223 399.578 121.914Z" fill="#263238"/>
<path d="M412.236 121.453V125.01H411.409V121.537C411.409 120.24 410.75 119.581 409.642 119.581C409.351 119.56 409.06 119.604 408.789 119.709C408.518 119.814 408.273 119.978 408.073 120.189C407.873 120.401 407.723 120.653 407.632 120.93C407.541 121.206 407.513 121.499 407.55 121.788V125.01H406.723V121.537C406.723 120.24 406.075 119.581 404.955 119.581C404.666 119.562 404.376 119.607 404.105 119.713C403.835 119.819 403.591 119.983 403.392 120.194C403.192 120.404 403.041 120.656 402.95 120.932C402.859 121.207 402.829 121.5 402.863 121.788V125.01H402.037V118.88H402.832V119.999C403.066 119.621 403.397 119.313 403.791 119.107C404.185 118.901 404.627 118.804 405.071 118.828C405.524 118.795 405.976 118.902 406.367 119.134C406.757 119.366 407.068 119.711 407.257 120.125C407.505 119.708 407.862 119.368 408.29 119.139C408.717 118.911 409.199 118.803 409.683 118.828C410.034 118.789 410.389 118.832 410.722 118.951C411.054 119.071 411.354 119.264 411.6 119.517C411.846 119.771 412.031 120.077 412.142 120.412C412.252 120.747 412.284 121.103 412.236 121.453Z" fill="#263238"/>
<path d="M432.603 143.744C433.971 143.703 435.318 143.393 436.567 142.834C438.078 142.13 439.382 141.05 440.354 139.696C440.979 138.85 441.46 137.906 441.776 136.903C442.119 135.754 442.268 134.555 442.215 133.357C442.215 123.106 442.215 108.305 442.132 90.0105C442.132 80.858 442.132 70.8269 442.132 60.074C442.132 57.3893 442.132 54.6522 442.132 51.8629C442.132 50.4822 442.132 49.0596 442.132 47.6789C442.039 45.5411 441.221 43.4987 439.812 41.8882C438.403 40.2777 436.487 39.1953 434.381 38.8193C432.92 38.6419 431.447 38.5859 429.977 38.6519H425.469H346.747C345.052 38.6585 343.389 39.1177 341.931 39.982C340.473 40.8463 339.272 42.0843 338.452 43.5681C337.649 45.0463 337.245 46.7083 337.281 48.3902V73.5883C337.281 86.7575 337.281 99.4664 337.281 111.569C337.281 117.614 337.281 123.507 337.281 129.246V133.514C337.236 134.89 337.475 136.26 337.981 137.541C338.485 138.782 339.246 139.901 340.214 140.826C341.182 141.751 342.336 142.46 343.599 142.907C344.839 143.334 346.148 143.526 347.458 143.472H358.996H373.357L416.703 143.555H428.492H431.557H432.603H431.557H428.492H416.703L373.357 143.649H347.385C346.022 143.712 344.659 143.517 343.368 143.074C342.045 142.604 340.835 141.859 339.818 140.89C338.802 139.92 338.001 138.747 337.469 137.447C336.945 136.116 336.696 134.692 336.737 133.263V129.298C336.737 123.566 336.737 117.674 336.737 111.621C336.737 99.5187 336.737 86.8098 336.737 73.6406V48.4425C336.703 46.6699 337.129 44.9189 337.971 43.3589C338.835 41.7846 340.105 40.4697 341.648 39.5502C343.19 38.6308 344.951 38.1401 346.747 38.1289H425.469H430.019C431.517 38.0667 433.018 38.1297 434.506 38.3172C436.714 38.7372 438.714 39.894 440.179 41.5984C441.644 43.3028 442.487 45.4539 442.571 47.6998C442.571 49.1224 442.571 50.5136 442.571 51.8838C442.571 54.6662 442.571 57.4067 442.571 60.0949C442.571 70.8478 442.571 80.879 442.571 90.0315C442.571 108.326 442.508 123.127 442.487 133.378C442.526 134.595 442.363 135.811 442.006 136.976C441.68 137.998 441.181 138.957 440.531 139.811C439.535 141.174 438.201 142.255 436.661 142.949C435.719 143.355 434.721 143.616 433.701 143.723C432.948 143.754 432.603 143.744 432.603 143.744Z" fill="#263238"/>
<path d="M389.747 151.222C389.384 149.498 389.384 147.717 389.747 145.992C390.109 147.717 390.109 149.498 389.747 151.222Z" fill="#263238"/>
<path d="M389.735 161.683C389.47 160.838 389.378 159.949 389.463 159.068C389.372 158.186 389.468 157.295 389.746 156.453C390.01 157.297 390.099 158.187 390.007 159.068C390.093 159.949 390 160.838 389.735 161.683V161.683Z" fill="#263238"/>
<path d="M389.715 172.143C389.457 171.297 389.368 170.408 389.453 169.528C389.368 168.647 389.46 167.757 389.725 166.913C389.996 167.756 390.089 168.647 389.997 169.528C390.089 170.409 389.993 171.301 389.715 172.143Z" fill="#263238"/>
<path d="M389.695 182.603C389.437 181.757 389.348 180.868 389.434 179.988C389.348 179.106 389.441 178.217 389.706 177.373C389.977 178.216 390.069 179.106 389.978 179.988C390.069 180.869 389.973 181.761 389.695 182.603V182.603Z" fill="#263238"/>
<path d="M389.683 193.052C389.412 192.208 389.32 191.318 389.411 190.437C389.32 189.555 389.416 188.664 389.694 187.822C389.952 188.668 390.041 189.556 389.955 190.437C390.041 191.318 389.948 192.207 389.683 193.052Z" fill="#263238"/>
<path d="M389.673 203.512C389.402 202.669 389.31 201.778 389.401 200.897C389.316 200.016 389.408 199.127 389.673 198.282C390.036 200.006 390.036 201.788 389.673 203.512V203.512Z" fill="#263238"/>
<path d="M389.673 210.123C389.516 210.123 389.391 209.809 389.391 209.432C389.391 209.056 389.516 208.742 389.673 208.742C389.83 208.742 389.945 209.045 389.945 209.432C389.945 209.819 389.819 210.123 389.673 210.123Z" fill="#263238"/>
<path d="M293.264 129.466C293.627 131.19 293.627 132.971 293.264 134.696C292.902 132.971 292.902 131.19 293.264 129.466Z" fill="#263238"/>
<path d="M293.264 119.006C293.627 120.73 293.627 122.511 293.264 124.236C292.902 122.511 292.902 120.73 293.264 119.006Z" fill="#263238"/>
<path d="M293.264 108.546C293.627 110.27 293.627 112.051 293.264 113.776C292.902 112.051 292.902 110.27 293.264 108.546Z" fill="#263238"/>
<path d="M293.264 98.0854C293.627 99.8099 293.627 101.591 293.264 103.315C292.902 101.591 292.902 99.8099 293.264 98.0854Z" fill="#263238"/>
<path d="M298.808 93.2114C297.084 93.574 295.303 93.574 293.578 93.2114C295.303 92.8488 297.084 92.8488 298.808 93.2114Z" fill="#263238"/>
<path d="M309.267 93.2114C307.543 93.574 305.762 93.574 304.037 93.2114C305.762 92.8488 307.543 92.8488 309.267 93.2114Z" fill="#263238"/>
<path d="M319.728 93.2114C318.004 93.574 316.223 93.574 314.498 93.2114C316.223 92.8488 318.004 92.8488 319.728 93.2114V93.2114Z" fill="#263238"/>
<path d="M330.187 93.2114C328.463 93.574 326.682 93.574 324.957 93.2114C326.682 92.8488 328.463 92.8488 330.187 93.2114Z" fill="#263238"/>
<path d="M337.008 93.2114C337.008 93.3683 336.652 93.4833 336.213 93.4833C335.774 93.4833 335.418 93.3683 335.418 93.2114C335.418 93.0545 335.774 92.9395 336.213 92.9395C336.652 92.9395 337.008 93.0231 337.008 93.2114Z" fill="#263238"/>
</svg>
