<svg width="189" height="35" viewBox="0 0 189 35" fill="none" xmlns="http://www.w3.org/2000/svg">
<path d="M18.8672 28H16.04V18.1416H5.28809V28H2.47559V6.67188H5.28809V15.8418H16.04V6.67188H18.8672V28ZM30.0146 28.293C27.8662 28.293 26.1182 27.5898 24.7705 26.1836C23.4229 24.7676 22.749 22.8779 22.749 20.5146V20.0166C22.749 18.4443 23.0469 17.043 23.6426 15.8125C24.248 14.5723 25.0879 13.6055 26.1621 12.9121C27.2461 12.209 28.418 11.8574 29.6777 11.8574C31.7383 11.8574 33.3398 12.5361 34.4824 13.8936C35.625 15.251 36.1963 17.1943 36.1963 19.7236V20.8516H25.459C25.498 22.4141 25.9521 23.6787 26.8213 24.6455C27.7002 25.6025 28.8135 26.0811 30.1611 26.0811C31.1182 26.0811 31.9287 25.8857 32.5928 25.4951C33.2568 25.1045 33.8379 24.5869 34.3359 23.9424L35.9912 25.2314C34.6631 27.2725 32.6709 28.293 30.0146 28.293ZM29.6777 14.084C28.584 14.084 27.666 14.4844 26.9238 15.2852C26.1816 16.0762 25.7227 17.1895 25.5469 18.625H33.4863V18.4199C33.4082 17.043 33.0371 15.9785 32.373 15.2266C31.709 14.4648 30.8105 14.084 29.6777 14.084ZM49.1309 28C48.9746 27.6875 48.8477 27.1309 48.75 26.3301C47.4902 27.6387 45.9863 28.293 44.2383 28.293C42.6758 28.293 41.3916 27.8535 40.3857 26.9746C39.3896 26.0859 38.8916 24.9629 38.8916 23.6055C38.8916 21.9551 39.5166 20.6758 40.7666 19.7676C42.0264 18.8496 43.7939 18.3906 46.0693 18.3906H48.7061V17.1455C48.7061 16.1982 48.4229 15.4463 47.8564 14.8896C47.29 14.3232 46.4551 14.04 45.3516 14.04C44.3848 14.04 43.5742 14.2842 42.9199 14.7725C42.2656 15.2607 41.9385 15.8516 41.9385 16.5449H39.2139C39.2139 15.7539 39.4922 14.9922 40.0488 14.2598C40.6152 13.5176 41.377 12.9316 42.334 12.502C43.3008 12.0723 44.3604 11.8574 45.5127 11.8574C47.3389 11.8574 48.7695 12.3164 49.8047 13.2344C50.8398 14.1426 51.377 15.3975 51.416 16.999V24.2939C51.416 25.749 51.6016 26.9062 51.9727 27.7656V28H49.1309ZM44.6338 25.9346C45.4834 25.9346 46.2891 25.7148 47.0508 25.2754C47.8125 24.8359 48.3643 24.2646 48.7061 23.5615V20.3096H46.582C43.2617 20.3096 41.6016 21.2812 41.6016 23.2246C41.6016 24.0742 41.8848 24.7383 42.4512 25.2168C43.0176 25.6953 43.7451 25.9346 44.6338 25.9346ZM58.6084 28H55.8984V5.5H58.6084V28ZM66.6357 8.3125V12.1504H69.5947V14.2451H66.6357V24.0742C66.6357 24.709 66.7676 25.1875 67.0312 25.5098C67.2949 25.8223 67.7441 25.9785 68.3789 25.9785C68.6914 25.9785 69.1211 25.9199 69.668 25.8027V28C68.9551 28.1953 68.2617 28.293 67.5879 28.293C66.377 28.293 65.4639 27.9268 64.8486 27.1943C64.2334 26.4619 63.9258 25.4219 63.9258 24.0742V14.2451H61.04V12.1504H63.9258V8.3125H66.6357ZM75.4834 14.0693C76.6846 12.5947 78.2471 11.8574 80.1709 11.8574C83.5205 11.8574 85.21 13.7471 85.2393 17.5264V28H82.5293V17.5117C82.5195 16.3691 82.2559 15.5244 81.7383 14.9775C81.2305 14.4307 80.4346 14.1572 79.3506 14.1572C78.4717 14.1572 77.7002 14.3916 77.0361 14.8604C76.3721 15.3291 75.8545 15.9443 75.4834 16.7061V28H72.7734V5.5H75.4834V14.0693Z" fill="#505050"/>
<path d="M92.6113 28V6.67188H100.272C103.017 6.67188 105.102 7.1748 106.527 8.18066C107.963 9.18652 108.681 10.6465 108.681 12.5605C108.681 13.6641 108.427 14.6064 107.919 15.3877C107.411 16.1689 106.664 16.7451 105.678 17.1162C106.791 17.4092 107.646 17.9561 108.241 18.7568C108.837 19.5576 109.135 20.5342 109.135 21.6865C109.135 23.7764 108.471 25.3486 107.143 26.4033C105.824 27.4482 103.866 27.9805 101.269 28H92.6113ZM97.7529 18.9326V24.0449H101.122C102.05 24.0449 102.763 23.835 103.261 23.415C103.759 22.9854 104.008 22.3848 104.008 21.6133C104.008 19.8359 103.124 18.9424 101.356 18.9326H97.7529ZM97.7529 15.5635H100.434C101.557 15.5537 102.357 15.3486 102.836 14.9482C103.314 14.5479 103.554 13.957 103.554 13.1758C103.554 12.2773 103.295 11.6328 102.777 11.2422C102.26 10.8418 101.425 10.6416 100.272 10.6416H97.7529V15.5635ZM121.19 26.2861C120.146 27.624 118.734 28.293 116.957 28.293C115.219 28.293 113.9 27.79 113.002 26.7842C112.113 25.7686 111.669 24.3135 111.669 22.4189V12.1504H116.605V22.4482C116.605 23.8057 117.265 24.4844 118.583 24.4844C119.716 24.4844 120.521 24.0791 121 23.2686V12.1504H125.966V28H121.337L121.19 26.2861ZM133.891 28H128.939V12.1504H133.891V28ZM128.646 8.06348C128.646 7.36035 128.9 6.78418 129.408 6.33496C129.916 5.88574 130.575 5.66113 131.386 5.66113C132.196 5.66113 132.855 5.88574 133.363 6.33496C133.871 6.78418 134.125 7.36035 134.125 8.06348C134.125 8.7666 133.871 9.34277 133.363 9.79199C132.855 10.2412 132.196 10.4658 131.386 10.4658C130.575 10.4658 129.916 10.2412 129.408 9.79199C128.9 9.34277 128.646 8.7666 128.646 8.06348ZM142.152 28H137.201V5.5H142.152V28ZM144.584 19.958C144.584 17.4482 145.126 15.4707 146.21 14.0254C147.294 12.5801 148.808 11.8574 150.751 11.8574C152.167 11.8574 153.358 12.4141 154.325 13.5273V5.5H159.276V28H154.838L154.589 26.3008C153.573 27.6289 152.284 28.293 150.722 28.293C148.837 28.293 147.343 27.5703 146.239 26.125C145.136 24.6797 144.584 22.624 144.584 19.958ZM149.521 20.2656C149.521 23.0781 150.341 24.4844 151.981 24.4844C153.075 24.4844 153.856 24.0254 154.325 23.1074V17.0723C153.876 16.1348 153.104 15.666 152.011 15.666C150.487 15.666 149.662 16.8965 149.535 19.3574L149.521 20.2656ZM169.75 28.293C167.318 28.293 165.351 27.5703 163.847 26.125C162.343 24.6699 161.591 22.7803 161.591 20.4561V20.0459C161.591 18.4248 161.889 16.9941 162.484 15.7539C163.09 14.5137 163.969 13.5566 165.121 12.8828C166.273 12.1992 167.641 11.8574 169.223 11.8574C171.449 11.8574 173.207 12.5508 174.496 13.9375C175.785 15.3145 176.43 17.2383 176.43 19.709V21.6279H166.615C166.791 22.5166 167.177 23.2148 167.772 23.7227C168.368 24.2305 169.14 24.4844 170.087 24.4844C171.649 24.4844 172.87 23.9375 173.749 22.8438L176.005 25.5098C175.39 26.3594 174.516 27.0381 173.383 27.5459C172.26 28.0439 171.049 28.293 169.75 28.293ZM169.193 15.666C167.748 15.666 166.889 16.623 166.615 18.5371H171.596V18.1562C171.615 17.3652 171.415 16.7549 170.995 16.3252C170.575 15.8857 169.975 15.666 169.193 15.666ZM188.017 16.6182L186.391 16.501C184.838 16.501 183.842 16.9893 183.402 17.9658V28H178.466V12.1504H183.095L183.256 14.1865C184.086 12.6338 185.243 11.8574 186.728 11.8574C187.255 11.8574 187.714 11.916 188.104 12.0332L188.017 16.6182Z" fill="#505050"/>
</svg>
